<?xml version="1.0" standalone="no"?>
<!DOCTYPE svg PUBLIC "-//W3C//DTD SVG 1.1//EN" "http://www.w3.org/Graphics/SVG/1.1/DTD/svg11.dtd" >
<svg>
<metadata>
Created by FontForge 20110222 at Sun Nov  6 17:32:11 2011
 By System Administrator
2002 | Eric Olson | Process Type Foundry | All Rights Reserved
</metadata>
<defs>
<font id="Bryant-Medium" horiz-adv-x="666" >
  <font-face 
    font-family="Bryant"
    font-weight="500"
    font-stretch="normal"
    units-per-em="1000"
    panose-1="0 0 0 0 0 0 0 0 0 0"
    ascent="800"
    descent="-200"
    x-height="433"
    cap-height="675"
    bbox="-55 -223 1139 889"
    underline-thickness="20"
    underline-position="-113"
    unicode-range="U+0020-FB02"
  />
<missing-glyph horiz-adv-x="1000" 
 />
    <glyph glyph-name=".notdef" horiz-adv-x="1000" 
 />
    <glyph glyph-name=".null" horiz-adv-x="0" 
 />
    <glyph glyph-name="nonmarkingreturn" horiz-adv-x="285" 
 />
    <glyph glyph-name="space" unicode=" " horiz-adv-x="285" 
 />
    <glyph glyph-name="hungarumlaut" unicode="&#x2dd;" horiz-adv-x="453" 
d="M368 634q-2 14 -10 22q-6 6 -15 9q-14 5 -27 -1t-18 -20l-54 -134q0 -1 -1 -2.5t-1 -2.5q-4 -9 -2 -18t7 -16q4 -7 17 -12q14 -5 28 1t19 20l55 137q3 10 2 17zM209 619q2 9 1 17.5t-6 15.5q-3 5 -8 8t-10 5q-14 5 -27.5 -1t-18.5 -20l-53 -134q0 -1 -1 -2.5t-1 -2.5
q-4 -9 -1.5 -18.5t8.5 -17.5q5 -7 15 -10q14 -5 28 0.5t19 19.5l54 134q0 1 0.5 3t0.5 3z" />
    <glyph glyph-name="ogonek" unicode="&#x2db;" horiz-adv-x="297" 
d="M242 -146q0 8 -6 14t-19 3q-12 -3 -21.5 -4.5t-23.5 -1.5q-23 0 -40 11t-17 37q0 28 16 48.5t38 38.5h-43q-13 0 -25.5 -8.5t-22.5 -21.5t-16.5 -28.5t-6.5 -28.5q0 -23 9.5 -40t25 -28.5t36 -17t41.5 -5.5q14 0 35.5 3.5t33.5 14.5q6 6 6 14z" />
    <glyph glyph-name="caron" unicode="&#x2c7;" horiz-adv-x="342" 
d="M307 584q0 8 -5 18q-9 15 -27 15q-8 0 -16 -5l-87 -56l-88 56q-8 5 -19 5q-15 0 -25 -15q-5 -8 -5 -16q0 -17 15 -27l102 -64q10 -7 20 -7q8 0 16 4l105 67q14 9 14 25z" />
    <glyph glyph-name="dotlessi" unicode="&#x131;" horiz-adv-x="271" 
d="M185 41v352q0 20 -14.5 34.5t-34.5 14.5t-34.5 -14.5t-14.5 -34.5v-352q0 -20 14.5 -34.5t34.5 -14.5t34.5 14.5t14.5 34.5z" />
    <glyph glyph-name="fraction" unicode="&#x2044;" horiz-adv-x="384" 
d="M429 646q2 16 -12 25q-8 4 -12 4q-15 2 -24 -11l-421 -632q-5 -7 -5 -12q-2 -15 12 -24q3 -2 5.5 -3t5.5 -1q15 -2 25 12l421 631q4 5 5 11z" />
    <glyph glyph-name="fraction" unicode="&#x2215;" horiz-adv-x="384" 
d="M429 646q2 16 -12 25q-8 4 -12 4q-15 2 -24 -11l-421 -632q-5 -7 -5 -12q-2 -15 12 -24q3 -2 5.5 -3t5.5 -1q15 -2 25 12l421 631q4 5 5 11z" />
    <glyph glyph-name="fi" unicode="&#xfb01;" horiz-adv-x="646" 
d="M361 633q0 17 -11.5 29t-28.5 12h-36q-88 0 -126.5 -46.5t-38.5 -125.5v-69h-60q-17 0 -28.5 -11.5t-11.5 -28.5t11.5 -29t28.5 -12h60v-311q0 -20 14.5 -34.5t34.5 -14.5t34.5 14.5t14.5 34.5v311h85q17 0 28.5 12t11.5 29t-11.5 28.5t-28.5 11.5h-85v79q0 43 18.5 62
t56.5 19h28q17 0 28.5 11.5t11.5 28.5zM566 605q0 23 -16 39t-39 16t-38.5 -16t-15.5 -39t15.5 -38.5t38.5 -15.5t39 15.5t16 38.5zM560 41v352q0 20 -14.5 34.5t-34.5 14.5t-34 -14.5t-14 -34.5v-352q0 -20 14 -34.5t34 -14.5t34.5 14.5t14.5 34.5z" />
    <glyph glyph-name="fl" unicode="&#xfb02;" horiz-adv-x="630" 
d="M361 633q0 17 -11.5 29t-28.5 12h-36q-88 0 -126.5 -46.5t-38.5 -125.5v-69h-60q-17 0 -28.5 -11.5t-11.5 -28.5t11.5 -29t28.5 -12h60v-311q0 -20 14.5 -34.5t34.5 -14.5t34.5 14.5t14.5 34.5v311h85q17 0 28.5 12t11.5 29t-11.5 28.5t-28.5 11.5h-85v79q0 43 18.5 62
t56.5 19h28q17 0 28.5 11.5t11.5 28.5zM550 40v586q0 20 -14 34.5t-34 14.5t-34.5 -14.5t-14.5 -34.5v-586q0 -20 14.5 -34t34.5 -14t34 14t14 34z" />
    <glyph glyph-name="ring" unicode="&#x2da;" horiz-adv-x="277" 
d="M232 571q0 39 -27 66t-66 27q-19 0 -36 -7t-30 -20t-20.5 -30t-7.5 -36q0 -20 7.5 -37t20 -29.5t29.5 -20t37 -7.5q19 0 36 7.5t30 20.5t20 30t7 36zM190 571q0 -22 -14 -36.5t-37 -14.5t-37 14.5t-14 36.5q0 21 14.5 36t36.5 15t36.5 -15t14.5 -36z" />
    <glyph glyph-name="exclam" unicode="!" horiz-adv-x="325" 
d="M211 462v165q0 20 -14 34t-34 14t-34.5 -14t-14.5 -34v-165l2.5 -28.5t6.5 -69t8.5 -85.5t7.5 -79q1 -10 7.5 -16.5t16.5 -6.5t16 6.5t7 16.5q3 33 7.5 78.5t8 86t6.5 69zM220 51q0 23 -17 40t-40 17t-40.5 -17t-17.5 -40t17.5 -40t40.5 -17t40 17t17 40z" />
    <glyph glyph-name="quotedbl" unicode="&#x22;" horiz-adv-x="427" 
d="M332 456v178q0 17 -12 29t-29 12t-29 -12t-12 -29v-178q0 -17 12 -29t29 -12t29 12t12 29zM176 456v178q0 17 -12 29t-29 12t-28.5 -12t-11.5 -29v-178q0 -17 11.5 -29t28.5 -12t29 12t12 29z" />
    <glyph glyph-name="numbersign" unicode="#" horiz-adv-x="578" 
d="M543 435q0 14 -8.5 23t-22.5 9h-68l22 170q2 14 -7 24.5t-23 12.5t-25 -6t-13 -22l-22 -179h-134l21 170q2 14 -6.5 24.5t-22.5 12.5t-24.5 -6.5t-12.5 -22.5l-23 -178h-78q-14 0 -23 -9t-9 -23t9 -23t23 -9h70l-14 -113h-76q-14 0 -22.5 -9t-8.5 -23t8.5 -23t22.5 -9h67
l-25 -196q-2 -14 7 -25t23 -13t25 7t13 23l26 204h133l-25 -196q-2 -14 7 -25t23 -13t25 7t13 23l25 204h78q14 0 23 9t9 23t-9 23t-23 9h-69l14 113h76q14 0 22.5 9t8.5 23zM367 403l-13 -113h-134l14 113h133z" />
    <glyph glyph-name="dollar" unicode="$" horiz-adv-x="606" 
d="M541 180q0 63 -51.5 111.5t-152.5 84.5v208q38 -2 68 -8.5t59 -17.5q13 -5 24 -5q14 0 25 6t17 20q4 8 4 19q0 30 -30 44q-41 19 -81.5 26.5t-85.5 8.5v52q0 8 -5 13t-13 5t-13 -5t-5 -13v-52q-100 -5 -156 -50t-56 -126q0 -74 54 -122.5t158 -88.5v-208q-50 1 -91 14
t-86 42q-14 9 -29 7q-23 -2 -35 -24q-5 -9 -5 -22q0 -25 26 -43q55 -37 112 -51.5t108 -15.5v-61q0 -8 5 -13t13 -5t13 5t5 13v63q46 4 83.5 19t64.5 39.5t41.5 57.5t14.5 73zM301 392q-62 28 -86.5 53t-24.5 57q0 38 29 59t82 23v-192zM440 174q0 -41 -29 -63.5t-74 -27.5
v191q52 -25 77.5 -46.5t25.5 -53.5z" />
    <glyph glyph-name="percent" unicode="%" horiz-adv-x="804" 
d="M759 143q0 32 -12 60.5t-33 49.5t-49.5 33t-60.5 12t-60.5 -12t-49.5 -33t-33 -49.5t-12 -60.5t12 -60.5t33 -49.5t49.5 -33t60.5 -12t60.5 12t49.5 33t33 49.5t12 60.5zM600 644q0 19 -15 28q-8 3 -15 3q-8 0 -15 -3.5t-11 -11.5l-345 -624q-2 -4 -2.5 -7.5t-0.5 -7.5
q0 -8 3.5 -15t11.5 -11q6 -3 14 -3q19 0 27 15l344 624q4 8 4 13zM355 523q0 32 -12 60.5t-33 49.5t-49.5 33t-60.5 12t-60.5 -12t-49.5 -33t-33 -49.5t-12 -60.5t12 -60.5t33 -49.5t49.5 -33t60.5 -12t60.5 12t49.5 33t33 49.5t12 60.5zM690 143q0 -38 -22 -65t-64 -27
t-64 27t-22 65t22 65t64 27t64 -27t22 -65zM286 523q0 -38 -22 -65t-64 -27t-64 27t-22 65t22 65t64 27t64 -27t22 -65z" />
    <glyph glyph-name="ampersand" unicode="&#x26;" horiz-adv-x="724" 
d="M699 54q0 5 -4 15q-10 19 -30 19q-2 0 -2.5 -0.5t-2.5 -0.5q-17 -4 -33.5 -13.5t-44.5 -9.5q-24 0 -41 13t-32 38q9 11 22 28.5t25 37t22 39.5t15 36q5 19 -2 32.5t-24 19.5q-8 3 -16 3q-24 0 -35 -22q-14 -28 -28 -54t-32 -51q-10 12 -21 27.5t-25 36t-31.5 46.5
t-41.5 60q58 29 97 75.5t39 103.5q0 34 -13.5 61t-36 45.5t-52 28.5t-62.5 10q-70 0 -115 -38.5t-45 -108.5q0 -42 20.5 -78.5t43.5 -70.5q-34 -18 -63 -38t-50 -45t-33 -55.5t-12 -67.5q0 -43 16.5 -78t44.5 -59.5t65.5 -38t78.5 -13.5q54 0 101.5 20t87.5 53
q26 -35 58.5 -54t74.5 -19q12 0 28 3.5t31.5 9.5t29 15t21.5 20q7 10 7 19zM387 529q0 -40 -27 -68.5t-65 -48.5q-20 26 -38.5 56t-18.5 62q0 35 19.5 52.5t52.5 17.5q32 0 54.5 -18.5t22.5 -52.5zM399 127q-27 -26 -61.5 -40t-72.5 -14q-47 0 -80 27.5t-33 79.5q0 25 9 45
t24.5 37t36 30.5t43.5 24.5q15 -21 33.5 -48t37 -53.5t35.5 -50t28 -38.5z" />
    <glyph glyph-name="quotesingle" unicode="'" horiz-adv-x="271" 
d="M176 456v178q0 17 -12 29t-29 12t-28.5 -12t-11.5 -29v-178q0 -17 11.5 -29t28.5 -12t29 12t12 29z" />
    <glyph glyph-name="parenleft" unicode="(" horiz-adv-x="305" 
d="M275 -98q0 12 -6 23q-49 91 -78.5 181.5t-29.5 195.5q0 104 29 194.5t79 181.5q6 10 6 23q0 17 -12.5 28.5t-29.5 11.5q-20 0 -35 -20q-64 -90 -98.5 -199.5t-34.5 -219.5t34.5 -219.5t98.5 -200.5q15 -20 35 -20q17 0 29.5 11.5t12.5 28.5z" />
    <glyph glyph-name="parenright" unicode=")" horiz-adv-x="306" 
d="M241 302q0 112 -34 220t-98 199q-13 20 -36 20q-14 0 -25 -8q-18 -11 -18 -32q0 -11 7 -23q50 -90 79 -182t29 -194q0 -103 -29 -195t-79 -182q-6 -11 -6 -22q0 -22 18 -33q10 -7 23 -7q21 0 36 20q63 91 98 199t35 220z" />
    <glyph glyph-name="asterisk" unicode="*" horiz-adv-x="375" 
d="M350 553q0 4 -2 10q-3 9 -11 14.5t-17 5.5q-5 0 -11 -2l-93 -31v95q0 12 -8.5 21t-20.5 9t-21 -9t-9 -21v-95l-92 31q-6 2 -10 2q-9 0 -17.5 -5.5t-11.5 -14.5q-1 -4 -1 -11q0 -20 20 -27l92 -32l-60 -81q-5 -8 -5 -19q0 -14 12 -23q6 -5 17 -5q15 0 24 12l62 83l61 -83
q9 -12 25 -12q11 0 17 5q12 9 12 25q0 9 -6 17l-60 81l93 32q9 3 15 11t6 17z" />
    <glyph glyph-name="plus" unicode="+" horiz-adv-x="550" 
d="M500 217q0 16 -10.5 27.5t-27.5 11.5h-144v143q0 18 -12.5 31t-30.5 13t-30.5 -13t-12.5 -31v-143h-143q-17 0 -28 -11t-11 -28q0 -16 11 -27.5t28 -11.5h143v-143q0 -18 12.5 -30.5t30.5 -12.5t30.5 12.5t12.5 30.5v143h144q17 0 27.5 11.5t10.5 27.5z" />
    <glyph glyph-name="comma" unicode="," horiz-adv-x="309" 
d="M214 32q0 29 -15 52t-47 23q-23 0 -40 -17t-17 -40q0 -25 17 -40t36 -18q0 -38 -17 -68t-37 -55q-4 -6 -4 -11q0 -12 11 -18q6 -3 12 -3q10 0 17 7q38 36 61 85.5t23 102.5z" />
    <glyph glyph-name="hyphen" unicode="-" horiz-adv-x="448" 
d="M363 266q0 18 -13 31t-31 13h-190q-18 0 -31 -13t-13 -31t13 -31t31 -13h190q18 0 31 13t13 31z" />
    <glyph glyph-name="hyphen" unicode="&#xad;" horiz-adv-x="448" 
d="M363 266q0 18 -13 31t-31 13h-190q-18 0 -31 -13t-13 -31t13 -31t31 -13h190q18 0 31 13t13 31z" />
    <glyph glyph-name="period" unicode="." horiz-adv-x="304" 
d="M209 51q0 23 -17 40t-40 17t-40 -17t-17 -40t17 -40t40 -17t40 17t17 40z" />
    <glyph glyph-name="slash" unicode="/" horiz-adv-x="405" 
d="M365 689q0 11 -7.5 20.5t-18.5 13.5q-8 2 -12 2q-12 0 -21.5 -6.5t-13.5 -18.5l-250 -757q-2 -8 -2 -12q0 -12 7 -21.5t19 -13.5q8 -2 12 -2q11 0 20.5 7t13.5 18l250 757q1 3 2 6.5t1 6.5z" />
    <glyph glyph-name="zero" unicode="0" horiz-adv-x="646" 
d="M591 333q0 65 -16 127t-49 110.5t-83.5 78t-119.5 29.5t-119.5 -29.5t-83.5 -78t-49 -110.5t-16 -127t16 -127.5t49 -111t83.5 -78t119.5 -29.5t119.5 29.5t83.5 78t49 111t16 127.5zM489 333q0 -118 -42.5 -186t-123.5 -68t-123.5 68t-42.5 186t42.5 186t123.5 68
t123.5 -68t42.5 -186z" />
    <glyph glyph-name="one" unicode="1" horiz-adv-x="408" 
d="M308 43v581q0 22 -15 36.5t-37 14.5q-1 0 -2 -0.5t-3 -0.5q-7 -1 -24.5 -6t-40 -12t-47 -14.5t-46.5 -15t-39 -13t-23 -7.5q-25 -8 -30 -34q-1 -3 -1 -9q0 -19 13.5 -32.5t32.5 -13.5h3q9 1 31.5 7.5t47.5 15t47.5 16t30.5 10.5v-523q0 -21 15.5 -36t36.5 -15t35.5 15
t14.5 36z" />
    <glyph glyph-name="two" unicode="2" horiz-adv-x="664" 
d="M589 46q0 19 -13 32t-32 13h-359q1 36 22 64t51.5 50.5t65 39t61.5 29.5q38 18 73.5 37t63.5 43.5t44.5 58t16.5 79.5t-22.5 81t-58.5 58.5t-80.5 35t-87.5 11.5q-29 0 -60.5 -4t-62 -12t-59 -21.5t-50.5 -31.5q-10 -8 -17 -18.5t-7 -23.5q0 -15 9 -27q15 -18 38 -18
q13 0 23 7q24 15 45 26t43 18t46 10.5t53 3.5q25 0 51 -5.5t47 -17t34.5 -30t13.5 -43.5q0 -30 -16.5 -53t-45.5 -42t-68 -37.5t-83 -39.5q-38 -18 -74.5 -41t-65 -54.5t-46 -74.5t-17.5 -102q0 -19 13 -33t32 -14h434q19 0 32 13.5t13 32.5z" />
    <glyph glyph-name="three" unicode="3" horiz-adv-x="627" 
d="M567 192q0 64 -34.5 108t-94.5 67q36 23 58.5 58.5t22.5 79.5q0 43 -18 75t-47 54t-67 33t-78 11q-24 0 -51 -4t-54.5 -12.5t-53.5 -22t-48 -32.5q-17 -15 -17 -35q0 -10 8 -21q13 -16 32 -16q14 0 24 7q27 18 62 33.5t90 15.5q24 0 45.5 -6t38 -18t26 -29.5t9.5 -41.5
q0 -48 -37 -72.5t-99 -24.5h-49q-18 0 -30.5 -12.5t-12.5 -30.5t12.5 -31t30.5 -13h42q87 0 137.5 -27.5t50.5 -87.5q0 -32 -14.5 -55t-38 -37.5t-52.5 -21t-57 -6.5q-68 0 -116 21.5t-80 59.5q-6 8 -14.5 11t-17.5 3q-20 0 -33 -13q-12 -12 -12 -31t11 -33q22 -29 53.5 -49
t67 -33.5t72 -19.5t69.5 -6q48 0 95 12.5t84.5 37.5t61 63.5t23.5 91.5z" />
    <glyph glyph-name="four" unicode="4" horiz-adv-x="710" 
d="M675 214q0 19 -13.5 32.5t-32.5 13.5h-119v364q0 21 -15 36t-36 15q-13 0 -22 -5t-17 -14l-373 -409q-12 -13 -12 -34q0 -20 15 -33q13 -11 30 -11h328v-126q0 -21 15 -36t36 -15t36 15t15 36v126h119q19 0 32.5 13t13.5 32zM408 260h-225l225 248v-248z" />
    <glyph glyph-name="five" unicode="5" horiz-adv-x="632" 
d="M572 216q0 53 -20.5 93t-55 67t-80 40.5t-96.5 13.5q-32 0 -63.5 -6t-60.5 -19l27 169h273q19 0 31.5 13.5t12.5 32.5t-12.5 32.5t-31.5 13.5h-314q-18 0 -30.5 -12.5t-15.5 -29.5q-1 -1 -4.5 -21.5t-8.5 -51.5t-10.5 -67t-10.5 -67t-8 -52.5t-3 -23.5q0 -19 13.5 -33.5
t32.5 -14.5q12 0 26 7q40 21 76 30t81 9q29 0 56 -8t48 -24t33.5 -39.5t12.5 -54.5q0 -32 -14 -57.5t-36.5 -43t-52.5 -26.5t-61 -9q-55 0 -97.5 14t-84.5 50q-13 11 -28 11q-22 0 -36 -17q-10 -11 -10 -28q0 -21 17 -36q51 -46 111.5 -65t127.5 -19q51 0 99 16.5t85 46.5
t59.5 72t22.5 94z" />
    <glyph glyph-name="six" unicode="6" horiz-adv-x="626" 
d="M576 211q0 49 -19.5 88.5t-53 66.5t-78.5 41.5t-97 14.5q-43 0 -85 -14t-72 -45q16 103 77.5 163t167.5 60q24 0 49.5 -2.5t45.5 -6.5q19 -4 33.5 4.5t19.5 27.5q2 8 2 12q0 16 -10 26.5t-25 15.5q-25 8 -57.5 11.5t-55.5 3.5q-90 0 -158 -32.5t-113.5 -89t-68.5 -133.5
t-23 -166q0 -61 18.5 -111t53 -85t83.5 -54.5t110 -19.5q52 0 98.5 16t81.5 45.5t55.5 71t20.5 91.5zM474 203q0 -30 -13 -53.5t-35 -39.5t-50 -24t-58 -8t-58.5 8t-50.5 24.5t-35.5 41t-13.5 56.5q0 31 13.5 54.5t36 38.5t51 22.5t57.5 7.5q32 0 60.5 -8t49.5 -24t33.5 -40
t12.5 -56z" />
    <glyph glyph-name="seven" unicode="7" horiz-adv-x="606" 
d="M561 621q0 20 -12.5 32.5t-32.5 12.5h-446q-19 0 -32 -13t-13 -32t13 -32.5t32 -13.5h363q-90 -102 -137 -230q-28 -74 -41 -151t-13 -152q0 -21 15 -35.5t36 -14.5t36 14.5t15 35.5q0 64 6 116.5t19.5 100.5t34.5 93.5t51 96.5q23 38 48.5 75t50.5 72q5 6 6 11.5t1 13.5
z" />
    <glyph glyph-name="eight" unicode="8" horiz-adv-x="650" 
d="M590 192q0 60 -34.5 105.5t-94.5 69.5q38 25 60 60.5t22 77.5q0 36 -16 67.5t-44.5 55t-69 37t-88.5 13.5t-88 -13.5t-68.5 -37t-44.5 -55t-16 -67.5q0 -42 22 -77.5t60 -60.5q-60 -24 -95 -69.5t-35 -105.5q0 -42 19.5 -79.5t55 -65.5t84 -44t106.5 -16t106.5 16
t83.5 44t55 65.5t20 79.5zM443 496q0 -23 -9.5 -41.5t-26 -31.5t-38 -20.5t-44.5 -7.5t-44.5 7t-38 20t-26 32t-9.5 42q0 44 32 69.5t86 25.5t86 -27t32 -68zM488 197q0 -27 -12.5 -49t-34 -38t-51.5 -24.5t-65 -8.5t-65 8.5t-51.5 24.5t-34 38t-12.5 49t13 49t35 37
t51.5 23.5t63.5 8.5t63.5 -8.5t51.5 -23.5t35 -37t13 -49z" />
    <glyph glyph-name="nine" unicode="9" horiz-adv-x="625" 
d="M570 409q0 61 -17 110.5t-51 85t-83.5 54.5t-113.5 19q-52 0 -98 -14.5t-81 -43t-55.5 -69.5t-20.5 -93q0 -50 19 -89.5t52.5 -67.5t78.5 -43t97 -15q43 0 85 14t72 45q-16 -103 -77.5 -163t-167.5 -60q-24 0 -48 2t-47 7q-3 1 -9 1q-15 1 -27.5 -7.5t-16.5 -25.5
q-1 -4 -1 -12q0 -15 9.5 -25.5t24.5 -15.5q23 -8 56.5 -12t56.5 -4q90 0 158 33.5t113.5 91t68.5 134.5t23 163zM465 458q0 -32 -13.5 -55t-36 -38.5t-51 -23t-57.5 -7.5q-32 0 -60 8t-49 24t-33.5 40t-12.5 56q0 30 13 53.5t34.5 39.5t49.5 24.5t58 8.5t58.5 -8t50.5 -24.5
t35.5 -41t13.5 -56.5z" />
    <glyph glyph-name="colon" unicode=":" horiz-adv-x="304" 
d="M209 377q0 23 -17 40t-40 17t-40 -17t-17 -40t17 -40t40 -17t40 17t17 40zM209 51q0 23 -17 40t-40 17t-40 -17t-17 -40t17 -40t40 -17t40 17t17 40z" />
    <glyph glyph-name="semicolon" unicode=";" horiz-adv-x="308" 
d="M209 376q0 23 -17.5 40t-40.5 17t-40 -17t-17 -40t17 -39.5t40 -16.5t40.5 16.5t17.5 39.5zM213 32q0 29 -15 52t-47 23q-23 0 -40 -17t-17 -40q0 -25 17 -40t36 -18q0 -38 -17 -68t-37 -55q-3 -5 -3 -10q0 -12 10 -18q8 -4 12 -4q10 0 17 7q38 36 61 85.5t23 102.5z" />
    <glyph glyph-name="semicolon" unicode="&#x37e;" horiz-adv-x="308" 
d="M209 376q0 23 -17.5 40t-40.5 17t-40 -17t-17 -40t17 -39.5t40 -16.5t40.5 16.5t17.5 39.5zM213 32q0 29 -15 52t-47 23q-23 0 -40 -17t-17 -40q0 -25 17 -40t36 -18q0 -38 -17 -68t-37 -55q-3 -5 -3 -10q0 -12 10 -18q8 -4 12 -4q10 0 17 7q38 36 61 85.5t23 102.5z" />
    <glyph glyph-name="less" unicode="&#x3c;" horiz-adv-x="643" 
d="M518 34q0 11 -6 21t-16 16l-282 168l282 168q10 6 16 16t6 21q0 13 -7 23q-13 20 -36 20q-12 0 -22 -6l-346 -205q-10 -6 -16 -15.5t-6 -21.5t6 -21.5t16 -15.5l346 -205q9 -6 22 -6q23 0 36 19q7 12 7 24z" />
    <glyph glyph-name="equal" unicode="=" horiz-adv-x="522" 
d="M432 320q0 16 -11 27t-27 11h-266q-16 0 -27 -11t-11 -27t11 -27.5t27 -11.5h266q16 0 27 11.5t11 27.5zM432 165q0 16 -11 27t-27 11h-266q-16 0 -27 -11t-11 -27t11 -27t27 -11h266q16 0 27 11t11 27z" />
    <glyph glyph-name="greater" unicode="&#x3e;" horiz-adv-x="643" 
d="M558 239q0 12 -6 21.5t-16 15.5l-346 205q-11 6 -22 6q-23 0 -36 -20q-7 -10 -7 -23q0 -11 6 -21t16 -16l282 -168l-282 -168q-10 -6 -16 -16t-6 -21q0 -13 6 -23q13 -20 37 -20q13 0 22 6l346 205q10 6 16 15.5t6 21.5z" />
    <glyph glyph-name="question" unicode="?" horiz-adv-x="563" 
d="M488 510q0 44 -19.5 76t-51 52.5t-71 30t-80.5 9.5q-18 0 -41 -3t-47.5 -9t-48 -15.5t-42.5 -22.5q-11 -7 -16.5 -18t-5.5 -23t5 -21q13 -23 39 -23q10 0 21 6q32 19 63 28t75 9q21 0 42 -4t38 -13.5t28 -25t11 -37.5q0 -25 -13 -47.5t-32 -44t-41 -42.5t-41 -44
q-17 -21 -28.5 -47.5t-13.5 -68.5q-1 -20 14 -34t35 -14t32.5 14t15.5 34q4 23 10.5 40t19.5 35q11 16 32 37.5t47 47.5q29 30 46.5 63t17.5 75zM324 51q0 23 -17 40t-40 17t-39.5 -17t-16.5 -40t16.5 -40t39.5 -17t40 17t17 40z" />
    <glyph glyph-name="at" unicode="@" horiz-adv-x="792" 
d="M767 93q-1 11 -9.5 19t-19.5 7q-6 0 -12 -3q-39 -18 -73.5 -31t-69.5 -21.5t-72 -12.5t-81 -4q-68 0 -123.5 21t-95 58.5t-61 90t-21.5 115.5q0 58 16 109.5t47.5 90.5t79 61.5t110.5 22.5q74 0 119 -34.5t45 -106.5v-36q-16 28 -46.5 43t-62.5 15q-36 0 -65 -13.5
t-50 -37t-32.5 -54.5t-11.5 -65t11.5 -64.5t32.5 -54t50.5 -37t64.5 -13.5q15 0 31 4t31 11.5t27 18.5t19 24l-0.5 -3t-0.5 -16q0 -15 11 -25.5t26 -10.5t25.5 10.5t10.5 25.5v278q0 49 -17 86.5t-47.5 63.5t-73.5 39.5t-94 13.5q-76 0 -136.5 -27t-102.5 -74t-64 -110
t-22 -135q0 -77 28 -140t77.5 -109t117 -71t147.5 -25q42 0 85.5 5t85 15t79.5 24.5t69 32.5q18 10 18 29zM544 327q0 -42 -26 -73t-71 -31t-71 31t-26 73q0 21 7 40t19.5 33.5t30.5 23t40 8.5t40 -8.5t30.5 -23t19.5 -33.5t7 -40z" />
    <glyph glyph-name="A" unicode="A" 
d="M646 43q0 12 -4 21l-263 581q-6 14 -18.5 22t-27.5 8t-27.5 -8.5t-18.5 -21.5l-263 -581q-4 -9 -4 -22q0 -14 7.5 -27t21.5 -19q9 -4 20 -4q14 0 27.5 8t19.5 22l63 142h308l63 -142q6 -14 19 -22t27 -8q9 0 21 5q14 6 21.5 19t7.5 27zM446 255h-226l113 253z" />
    <glyph glyph-name="B" unicode="B" horiz-adv-x="676" 
d="M631 187q0 59 -31.5 106.5t-87.5 63.5q38 20 59 58.5t21 87.5q0 36 -14 66t-40 51.5t-63.5 33.5t-85.5 12h-231q-23 0 -38 -15t-15 -38v-559q0 -23 15 -38.5t38 -15.5h247q53 0 95 14.5t71 40t44.5 59.5t15.5 73zM485 484q0 -35 -22.5 -59.5t-66.5 -24.5h-184v168h184
q43 0 66 -24.5t23 -59.5zM524 201q0 -19 -6.5 -37.5t-19.5 -32.5t-33 -23t-46 -9h-207v204h207q26 0 46 -9t33 -23t19.5 -32.5t6.5 -37.5z" />
    <glyph glyph-name="C" unicode="C" horiz-adv-x="708" 
d="M658 150q0 20 -15 34q-7 7 -16 10t-18 3q-21 0 -34 -15q-14 -16 -31 -33t-40 -31.5t-52.5 -23.5t-68.5 -9q-53 0 -95.5 20t-72.5 54.5t-46 79t-16 94.5q0 49 16 94t46 78.5t72.5 53.5t95.5 20q51 0 88 -15.5t73 -46.5q15 -12 33 -12q21 0 35 17q12 13 12 32q0 20 -17 37
q-45 44 -103 65.5t-121 21.5q-72 0 -134 -27.5t-107 -74.5t-71 -110t-26 -133q0 -71 26 -133.5t71 -110t107 -75t134 -27.5q76 0 146.5 34.5t116.5 93.5q12 15 12 35z" />
    <glyph glyph-name="D" unicode="D" horiz-adv-x="713" 
d="M668 333q0 69 -23 129.5t-66 106t-104 71.5t-137 26h-179q-23 0 -38.5 -15t-15.5 -38v-559q0 -23 15.5 -38.5t38.5 -15.5h179q76 0 137 26t104 71.5t66 106t23 129.5zM561 333q0 -50 -15 -93t-44.5 -74.5t-72 -49t-97.5 -17.5h-119v469h119q55 0 97.5 -18t72 -49.5
t44.5 -74.5t15 -93z" />
    <glyph glyph-name="E" unicode="E" horiz-adv-x="630" 
d="M595 50q0 21 -14.5 35.5t-35.5 14.5h-333v190h178q21 0 35.5 14.5t14.5 35.5t-14.5 35.5t-35.5 14.5h-178v176h318q21 0 36 15t15 36t-15 35t-36 14h-371q-23 0 -38.5 -15t-15.5 -38v-559q0 -23 15.5 -38.5t38.5 -15.5h386q21 0 35.5 14.5t14.5 35.5z" />
    <glyph glyph-name="F" unicode="F" horiz-adv-x="610" 
d="M590 617q0 21 -14.5 35t-35.5 14h-382q-23 0 -38 -15t-15 -38v-568q0 -23 15 -38t38 -15t38.5 15t15.5 38v245h188q21 0 35 14.5t14 35.5t-14 35.5t-35 14.5h-188v176h328q21 0 35.5 15t14.5 36z" />
    <glyph glyph-name="G" unicode="G" horiz-adv-x="739" 
d="M669 144v170q0 23 -14.5 38.5t-39.5 15.5h-201q-20 0 -34.5 -14t-14.5 -34t14.5 -34t34.5 -14h147l1 -115q-32 -36 -79.5 -54t-98.5 -18q-53 0 -95.5 20t-73 54t-47 78.5t-16.5 94.5q0 49 16.5 94t47 79.5t73 54.5t95.5 20q32 0 57 -5.5t45 -14.5t36 -20.5t31 -22.5
q13 -10 31 -10q22 0 36 18q10 13 10 28q0 23 -18 40q-45 43 -104.5 64t-123.5 21q-72 0 -134 -27.5t-107.5 -75t-71.5 -110.5t-26 -133q0 -71 26 -133.5t71.5 -109.5t107.5 -74.5t134 -27.5q77 0 150.5 30t122.5 93q7 8 9.5 15.5t2.5 18.5z" />
    <glyph glyph-name="H" unicode="H" horiz-adv-x="758" 
d="M653 46v575q0 23 -15 38.5t-38 15.5t-38.5 -15.5t-15.5 -38.5v-229h-334v229q0 23 -15 38.5t-38 15.5t-38.5 -15.5t-15.5 -38.5v-575q0 -23 15.5 -38.5t38.5 -15.5t38 15.5t15 38.5v246h334v-246q0 -23 15.5 -38.5t38.5 -15.5t38 15.5t15 38.5z" />
    <glyph glyph-name="I" unicode="I" horiz-adv-x="317" 
d="M212 46v575q0 23 -15 38.5t-38 15.5t-38.5 -15.5t-15.5 -38.5v-575q0 -23 15.5 -38.5t38.5 -15.5t38 15.5t15 38.5z" />
    <glyph glyph-name="J" unicode="J" horiz-adv-x="631" 
d="M536 260v361q0 22 -15 38t-38 16q-22 0 -38 -16t-16 -38v-368q0 -78 -34.5 -123.5t-111.5 -45.5q-62 0 -96.5 33.5t-48.5 87.5q-5 19 -18.5 30.5t-33.5 11.5q-23 0 -37 -14.5t-14 -37.5v-7q0 -3 1 -6q8 -44 30.5 -79.5t55.5 -61.5t74.5 -40t86.5 -14q63 0 110 20.5
t79 57.5t48 86.5t16 108.5z" />
    <glyph glyph-name="K" unicode="K" horiz-adv-x="717" 
d="M652 42q0 15 -7 26l-215 358l15 14.5t39 38t54.5 52.5t60.5 59q15 13 15 35q0 23 -16 37q-13 13 -34 13t-35 -14l-317 -309v269q0 22 -15 38t-38 16t-38.5 -16t-15.5 -38v-575q0 -23 15.5 -38.5t38.5 -15.5t38 16t15 38v167q4 4 17.5 17t32.5 32t43 42.5t51 49.5
l204 -337q7 -12 18.5 -18.5t24.5 -6.5q14 0 25 7q12 7 18 18.5t6 24.5z" />
    <glyph glyph-name="L" unicode="L" horiz-adv-x="604" 
d="M584 51q0 21 -14.5 35t-35.5 14h-321v521q0 23 -15.5 38.5t-38.5 15.5t-38.5 -15.5t-15.5 -38.5v-567q0 -23 15.5 -38.5t38.5 -15.5h375q21 0 35.5 15t14.5 36z" />
    <glyph glyph-name="M" unicode="M" horiz-adv-x="872" 
d="M767 42v582q0 21 -15 36t-36 15q-16 0 -28 -8.5t-18 -22.5l-233 -493l-235 492q-7 14 -18.5 23t-28.5 9q-21 0 -35.5 -14.5t-14.5 -35.5v-582q0 -21 14.5 -36t35.5 -15t36 15t15 36v368l187 -391q13 -28 44 -28t43 27l12 27t36 78t58.5 124t79.5 164v-370
q0 -21 14.5 -35.5t35.5 -14.5t36 14.5t15 35.5z" />
    <glyph glyph-name="N" unicode="N" horiz-adv-x="753" 
d="M648 42v582q0 21 -15 36t-36 15t-35.5 -15t-14.5 -36v-442q-39 50 -80 104.5t-80 107t-74 100t-61 83.5t-41.5 57.5l-15.5 21.5q-6 8 -16.5 13.5t-21.5 5.5q-24 0 -38 -15.5t-14 -35.5v-582q0 -21 14.5 -35.5t35.5 -14.5t36 14.5t15 35.5v443l352 -474q15 -19 39 -19
q21 0 36 14.5t15 35.5z" />
    <glyph glyph-name="O" unicode="O" horiz-adv-x="767" 
d="M722 333q0 70 -26 133t-71 110t-107 74.5t-134 27.5t-134 -27.5t-107.5 -74.5t-71.5 -110t-26 -133q0 -71 26 -133.5t71.5 -110t107.5 -75t134 -27.5t134 27.5t107 75t71 110t26 133.5zM615 333q0 -50 -16.5 -95t-47 -78.5t-73 -53.5t-94.5 -20t-95 20t-73.5 53.5
t-47 78.5t-16.5 95t16.5 95t47 78.5t73.5 53.5t95 20t94.5 -20t73 -53.5t47 -78.5t16.5 -95z" />
    <glyph glyph-name="P" unicode="P" horiz-adv-x="665" 
d="M643 465q0 40 -13.5 76t-41.5 64t-70.5 44.5t-100.5 16.5h-259q-23 0 -38 -15t-15 -38v-568q0 -23 15 -38t38 -15t38.5 15t15.5 38v221h205q58 0 100.5 16t70.5 43.5t41.5 63.5t13.5 76zM535 465q0 -19 -6.5 -37t-19.5 -32t-32.5 -22.5t-45.5 -8.5h-219v203h219
q26 0 45.5 -9t32.5 -23.5t19.5 -33t6.5 -37.5z" />
    <glyph glyph-name="Q" unicode="Q" horiz-adv-x="766" 
d="M721 333q0 70 -26 133t-71 110t-107 74.5t-134 27.5t-134 -27.5t-107 -74.5t-71 -110t-26 -133q0 -71 26 -133.5t71 -110t107 -75t134 -27.5q40 0 72 7l58 -109q7 -13 18.5 -20t25.5 -7q12 0 23 6q26 14 26 43q0 12 -6 23l-52 100q39 22 71 54t54.5 71t35 84.5t12.5 93.5
zM614 333q0 -69 -29.5 -126.5t-83.5 -89.5l-47 88q-14 27 -42 27q-12 0 -24 -6q-14 -7 -20.5 -19.5t-5.5 -26.5q0 -12 5 -21l39 -73q-5 -1 -11 -1h-12q-52 0 -94.5 20t-73 54t-47 79t-16.5 95t16.5 94.5t47 78.5t73 53.5t94.5 19.5t94.5 -19.5t73 -53.5t47 -78.5t16.5 -94.5
z" />
    <glyph glyph-name="R" unicode="R" horiz-adv-x="726" 
d="M646 472q0 50 -17.5 86.5t-48.5 60.5t-72 35.5t-88 11.5h-262q-22 0 -37.5 -15.5t-15.5 -37.5v-568q0 -22 15.5 -37.5t37.5 -15.5t38 15t16 38v235h207l125 -258q7 -14 19.5 -22t27.5 -8q14 0 23 5q14 7 21.5 20t7.5 28q0 13 -5 22q-41 84 -63.5 130.5t-33.5 69t-13.5 27
l-2.5 4.5q59 20 90 66.5t31 107.5zM539 469q0 -46 -30.5 -71.5t-74.5 -25.5h-222v196h222q45 0 75 -26.5t30 -72.5z" />
    <glyph glyph-name="S" unicode="S" horiz-adv-x="664" 
d="M599 182q0 43 -15.5 73t-42.5 51.5t-63 37t-76 29.5q-28 9 -64.5 20.5t-68.5 26.5t-54.5 34t-22.5 45q0 25 15 41t38 25t49.5 12t49.5 3q50 0 94.5 -13t82.5 -30q11 -4 24 -4q14 0 25.5 6.5t17.5 19.5q5 10 5 23t-6.5 24.5t-20.5 18.5q-23 12 -51 21.5t-57.5 16.5t-59 11
t-55.5 4q-47 0 -93 -8.5t-83 -29t-59.5 -55t-22.5 -85.5q0 -42 15 -72.5t39 -52t55.5 -37t64.5 -27.5q46 -17 88 -29.5t74 -26.5t51.5 -32t19.5 -45q0 -28 -16 -46t-40 -28t-51.5 -14t-51.5 -4q-51 0 -99.5 12t-99.5 43q-16 10 -33 10q-22 0 -37 -18q-5 -6 -7 -13.5
t-2 -15.5q0 -12 5 -23t13 -18q24 -21 55.5 -35.5t66.5 -23.5t70.5 -13t66.5 -4q50 0 98 10t85.5 33t60.5 60.5t23 91.5z" />
    <glyph glyph-name="T" unicode="T" horiz-adv-x="607" 
d="M601 616q0 21 -14.5 35.5t-35.5 14.5h-495q-21 0 -35.5 -14.5t-14.5 -35.5t14.5 -35.5t35.5 -14.5h194v-520q0 -23 15 -38.5t38 -15.5t38.5 15.5t15.5 38.5v520h194q21 0 35.5 14.5t14.5 35.5z" />
    <glyph glyph-name="U" unicode="U" horiz-adv-x="746" 
d="M651 269v352q0 23 -15.5 38.5t-38.5 15.5t-38.5 -15.5t-15.5 -38.5v-367q0 -76 -43.5 -123t-126.5 -47t-127 47t-44 123v367q0 23 -15.5 38.5t-38.5 15.5t-38 -15.5t-15 -38.5v-352q0 -64 19.5 -116t56 -89t88 -57t114.5 -20t114.5 20t88 57t56 89t19.5 116z" />
    <glyph glyph-name="V" unicode="V" horiz-adv-x="649" 
d="M629 625q0 20 -14 35t-35 15q-14 0 -26.5 -7.5t-18.5 -21.5l-211 -493l-209 493q-6 14 -19 21.5t-27 7.5q-21 0 -35 -15.5t-14 -35.5q0 -12 4 -20l255 -583q6 -14 18.5 -21.5t27.5 -7.5q14 0 27 7.5t19 21.5l254 583q4 9 4 21z" />
    <glyph glyph-name="W" unicode="W" horiz-adv-x="846" 
d="M826 623q0 17 -9.5 30.5t-26.5 18.5q-8 3 -15 3q-17 0 -30.5 -9.5t-18.5 -26.5l-137 -429l-120 430q-3 11 -14 23t-32 12t-32 -12t-14 -23l-121 -430l-137 429q-5 17 -18.5 26.5t-30.5 9.5q-8 0 -15 -3q-17 -5 -26.5 -19t-8.5 -31q0 -4 0.5 -7t1.5 -7l186 -580
q5 -17 19 -26.5t31 -9.5q16 0 28.5 9.5t17.5 25.5l119 423l118 -423q5 -16 18 -25.5t29 -9.5q17 0 31 9.5t19 26.5l185 580q3 7 3 15z" />
    <glyph glyph-name="X" unicode="X" horiz-adv-x="616" 
d="M581 40q0 19 -10 32l-202 263l199 261q10 13 10 29q0 11 -5.5 21.5t-13.5 17.5q-14 11 -31 11q-24 0 -38 -19l-183 -240l-182 240q-7 9 -18 14t-22 5q-14 0 -27 -8q-10 -7 -16 -17t-6 -23q0 -15 10 -30l199 -262l-200 -263q-10 -13 -10 -31q0 -23 18 -38q13 -11 31 -11
q25 0 39 19l184 243l185 -242q15 -20 41 -20q19 0 30 10q18 15 18 38z" />
    <glyph glyph-name="Y" unicode="Y" horiz-adv-x="608" 
d="M588 626q0 23 -18 38q-14 11 -31 11q-25 0 -39 -19l-196 -268l-196 268q-14 19 -39 19q-17 0 -30 -10q-19 -14 -19 -38q0 -17 10 -30l221 -297v-254q0 -22 15 -38t38 -16q22 0 38 16t16 38v255l221 296q9 12 9 29z" />
    <glyph glyph-name="Z" unicode="Z" horiz-adv-x="648" 
d="M598 50q0 20 -15 35t-35 15h-345l380 485q11 14 11 31q0 20 -15 35t-35 15h-427q-20 0 -35 -14.5t-15 -34.5t14.5 -35.5t35.5 -15.5h323l-379 -485q-11 -14 -11 -30q0 -27 21 -42q12 -9 30 -9h447q21 0 35.5 15t14.5 35z" />
    <glyph glyph-name="bracketleft" unicode="[" horiz-adv-x="370" 
d="M315 -94q0 16 -10.5 26.5t-26.5 10.5h-85v685h85q16 0 26.5 11t10.5 27t-10.5 26.5t-26.5 10.5h-129q-18 0 -31 -13t-13 -31v-747q0 -18 13 -31t31 -13h129q16 0 26.5 11t10.5 27z" />
    <glyph glyph-name="backslash" unicode="\" horiz-adv-x="394" 
d="M359 -70v7q0 3 -1 6l-250 757q-4 11 -14 18t-21 7q-5 0 -13 -2q-12 -4 -19 -14t-6 -22q0 -5 2 -11l250 -757q4 -11 13.5 -18t20.5 -7q5 0 13 2q11 4 18 13.5t7 20.5z" />
    <glyph glyph-name="bracketright" unicode="]" horiz-adv-x="370" 
d="M265 -88v747q0 18 -13 31t-31 13h-128q-16 0 -27 -10.5t-11 -26.5t11 -27t27 -11h85v-685h-85q-16 0 -27 -10.5t-11 -26.5t11 -27t27 -11h128q18 0 31 13t13 31z" />
    <glyph glyph-name="asciicircum" unicode="^" horiz-adv-x="466" 
d="M421 379q0 8 -5 18l-152 261q-10 18 -32 18q-21 0 -31 -19l-152 -260q-4 -8 -4 -18q0 -21 16 -31q10 -5 19 -5q22 0 32 18l121 207l120 -207q10 -18 32 -18q10 0 18 5t13 13t5 18z" />
    <glyph glyph-name="underscore" unicode="_" horiz-adv-x="443" 
d="M444 -66v53h-445v-53h445z" />
    <glyph glyph-name="grave" unicode="`" horiz-adv-x="365" 
d="M280 532q0 19 -15 30l-121 84q-11 7 -22 7q-18 0 -30 -15q-7 -8 -7 -22q0 -19 16 -30l122 -85q9 -6 21 -6q19 0 31 17q5 7 5 20z" />
    <glyph glyph-name="a" unicode="a" horiz-adv-x="513" 
d="M448 41v229q0 48 -15 81.5t-42 54.5t-65 30.5t-84 9.5q-15 0 -35 -1.5t-42 -6t-44.5 -11.5t-41.5 -18q-11 -6 -17 -16t-6 -21q0 -6 4 -16q11 -22 35 -22q9 0 17 3q28 12 57.5 19t64.5 7q61 0 89 -20t28 -71v-38q-24 23 -59.5 34.5t-74.5 11.5q-35 0 -65.5 -9.5t-53 -28
t-35.5 -45.5t-13 -62q0 -32 13.5 -58.5t36 -46.5t52.5 -31t63 -11q40 0 77.5 15t57.5 47v-9q0 -20 14.5 -34.5t34.5 -14.5t34.5 14.5t14.5 34.5zM350 135q0 -18 -9.5 -31.5t-24.5 -22.5t-34 -13.5t-38 -4.5q-17 0 -34.5 4t-31.5 12.5t-23 22t-9 33.5q0 19 8.5 32.5t23 22
t32 12t35.5 3.5t37 -3t34 -11t24.5 -21.5t9.5 -34.5z" />
    <glyph glyph-name="b" unicode="b" horiz-adv-x="583" 
d="M538 217q0 49 -15.5 91t-44 72.5t-68.5 48t-89 17.5q-48 0 -84 -21.5t-59 -55.5v258q0 20 -14.5 34t-34.5 14t-34.5 -14t-14.5 -34v-586q0 -20 14.5 -34.5t34.5 -14.5t34.5 14.5t14.5 34.5v23q21 -36 58.5 -56t84.5 -20q48 0 87.5 17.5t68.5 48t45 72.5t16 91zM441 217
q0 -29 -9.5 -55t-26.5 -45.5t-41.5 -30.5t-54.5 -11t-54 11t-41.5 30t-26.5 45t-9 56t9 56t26.5 45t41.5 30t54 11t54.5 -11t41.5 -30.5t26.5 -45.5t9.5 -55z" />
    <glyph glyph-name="c" unicode="c" horiz-adv-x="503" 
d="M453 91q0 15 -10 25q-12 13 -31 13q-15 0 -26 -10q-23 -20 -49.5 -33t-62.5 -13q-30 0 -54.5 11.5t-42 31t-27 46t-9.5 55.5t9.5 55.5t27 46t42 31t54.5 11.5q25 0 48.5 -7t46.5 -24q12 -9 27 -9q19 0 32 16q9 12 9 25q0 21 -15 34q-35 29 -70.5 39.5t-77.5 10.5
q-48 0 -89.5 -18t-72.5 -49t-49 -72.5t-18 -89.5t18 -89.5t49 -72.5t72.5 -49t89.5 -18q24 0 48 5.5t46 15.5t40.5 22.5t31.5 27.5q13 14 13 32z" />
    <glyph glyph-name="d" unicode="d" horiz-adv-x="583" 
d="M503 41v586q0 20 -14.5 34t-34.5 14t-34.5 -14t-14.5 -34v-258q-19 35 -57 56t-86 21q-49 0 -89 -17.5t-68.5 -48t-44 -72.5t-15.5 -91t16 -91t45 -72.5t68.5 -48t87.5 -17.5q47 0 84.5 20t58.5 56v-23q0 -20 14.5 -34.5t34.5 -14.5t34.5 14.5t14.5 34.5zM405 217
q0 -30 -9 -56t-26.5 -45t-41.5 -30t-54 -11t-54 11t-41.5 30.5t-26.5 45.5t-9 55t9 55t26.5 45.5t41.5 30.5t54 11t54 -11t41.5 -30t26.5 -45t9 -56z" />
    <glyph glyph-name="e" unicode="e" horiz-adv-x="541" 
d="M491 219q0 48 -16.5 89.5t-46 72t-70 48t-87.5 17.5q-48 0 -89 -18t-71.5 -49t-48 -72.5t-17.5 -89.5t18 -89.5t49 -72.5t72.5 -49t89.5 -18q53 0 102 20.5t81 54.5q14 14 14 32q0 12 -8 23q-13 16 -32 16q-15 0 -24 -9q-26 -26 -59 -40.5t-71 -14.5q-27 0 -50 9
t-40.5 24.5t-28 37t-12.5 46.5h309q14 0 25 9t11 23zM394 256h-246q8 48 40 78t83 30q50 0 83 -31t40 -77z" />
    <glyph glyph-name="f" unicode="f" horiz-adv-x="371" 
d="M361 633q0 17 -11.5 29t-28.5 12h-36q-88 0 -126.5 -46.5t-38.5 -125.5v-69h-60q-17 0 -28.5 -11.5t-11.5 -28.5t11.5 -29t28.5 -12h60v-311q0 -20 14.5 -34.5t34.5 -14.5t34.5 14.5t14.5 34.5v311h85q17 0 28.5 12t11.5 29t-11.5 28.5t-28.5 11.5h-85v79q0 43 18.5 62
t56.5 19h28q17 0 28.5 11.5t11.5 28.5z" />
    <glyph glyph-name="g" unicode="g" horiz-adv-x="579" 
d="M504 35v358q0 20 -14.5 34.5t-34.5 14.5t-34.5 -14.5t-14.5 -34.5v-22q-20 32 -55 53.5t-85 21.5q-47 0 -87 -17.5t-70 -47.5t-47 -71t-17 -89q0 -50 18 -91.5t48 -71.5t70 -46.5t85 -16.5q24 0 46 6.5t40.5 17.5t32.5 25t22 29v-47q0 -59 -35 -98t-109 -39
q-33 0 -64.5 5t-64.5 16q-8 3 -15 3q-19 0 -31 -17q-2 -2 -3.5 -4.5t-2.5 -5.5q-2 -4 -2 -8v-8q0 -24 26 -36q36 -16 73 -22.5t84 -6.5q60 0 105 18t75 49t45.5 73t15.5 90zM407 221q0 -29 -9.5 -54.5t-26.5 -44.5t-41.5 -29.5t-54.5 -10.5t-54.5 10.5t-41.5 29.5
t-26.5 44.5t-9.5 54.5t9.5 54.5t26.5 44t41.5 29t54.5 10.5t54.5 -10.5t41.5 -29t26.5 -44t9.5 -54.5z" />
    <glyph glyph-name="h" unicode="h" horiz-adv-x="574" 
d="M499 40v202q0 44 -12 81.5t-35 64.5t-56.5 42.5t-76.5 15.5q-45 0 -83.5 -21t-59.5 -53v255q0 20 -14 34t-34 14t-34 -14t-14 -34v-587q0 -20 14 -34t34 -14t34 14t14 34v198q0 24 8 46t23 38.5t36.5 26.5t49.5 10q54 0 82 -34.5t28 -85.5v-199q0 -20 14 -34t34 -14
t34 14t14 34z" />
    <glyph glyph-name="i" unicode="i" horiz-adv-x="269" 
d="M189 605q0 23 -16 39t-39 16t-38.5 -16t-15.5 -39t15.5 -38.5t38.5 -15.5t39 15.5t16 38.5zM183 41v352q0 20 -14.5 34.5t-34.5 14.5t-34 -14.5t-14 -34.5v-352q0 -20 14 -34.5t34 -14.5t34.5 14.5t14.5 34.5z" />
    <glyph glyph-name="j" unicode="j" horiz-adv-x="272" 
d="M197 605q0 23 -15.5 39t-38.5 16t-39.5 -16t-16.5 -39t16.5 -39t39.5 -16t38.5 16t15.5 39zM191 -13v407q0 20 -14 34t-34 14t-35 -14t-15 -34v-411q0 -21 -3.5 -39t-13 -31t-26 -20.5t-42.5 -7.5h-23q-17 0 -28.5 -11.5t-11.5 -28.5t11.5 -29t28.5 -12h34q45 0 77.5 14
t53.5 38.5t31 58t10 72.5z" />
    <glyph glyph-name="k" unicode="k" horiz-adv-x="519" 
d="M469 37q0 17 -11 30l-160 184l141 111q18 15 18 35q0 8 -3 15t-8 13q-15 17 -35 17q-14 0 -27 -10l-208 -161v355q0 20 -14 34.5t-34 14.5t-34 -14.5t-14 -34.5v-585q0 -20 14 -34.5t34 -14.5t34 14.5t14 34.5v116l50 39l165 -188q15 -17 35 -15q18 1 30.5 13.5
t12.5 30.5z" />
    <glyph glyph-name="l" unicode="l" horiz-adv-x="257" 
d="M177 40v586q0 20 -14 34.5t-34 14.5t-34.5 -14.5t-14.5 -34.5v-586q0 -20 14.5 -34t34.5 -14t34 14t14 34z" />
    <glyph glyph-name="m" unicode="m" horiz-adv-x="869" 
d="M794 41v204q0 44 -10.5 81t-32 63.5t-54.5 41.5t-79 15q-52 0 -95.5 -24t-64.5 -62q-20 39 -56.5 62.5t-89.5 23.5q-44 0 -78 -21.5t-56 -53.5v21q0 20 -14.5 35t-34.5 15t-34.5 -15t-14.5 -35v-152v-199q0 -20 14 -34.5t34 -14.5t34.5 14.5t14.5 34.5v197q0 24 6.5 46
t20 38.5t34 26.5t48.5 10q54 0 78 -34.5t24 -85.5v-198q0 -20 15 -34.5t35 -14.5t34 14.5t14 34.5v201q0 24 7 45t20.5 37t34 25.5t47.5 9.5q54 0 78 -34.5t24 -85.5v-198q0 -20 14 -34.5t34 -14.5t34.5 14.5t14.5 34.5z" />
    <glyph glyph-name="n" unicode="n" horiz-adv-x="575" 
d="M500 40v202q0 44 -12 81.5t-35 64.5t-56.5 42.5t-76.5 15.5q-44 0 -82.5 -21.5t-60.5 -54.5v22q0 20 -14.5 35t-34.5 15t-34 -15t-14 -35v-352q0 -20 14.5 -34t34.5 -14t34 14t14 34v198q0 24 7.5 46t22.5 38.5t36.5 26.5t49.5 10q54 0 82 -34.5t28 -85.5v-199
q0 -20 14.5 -34t34.5 -14t34 14t14 34z" />
    <glyph glyph-name="o" unicode="o" horiz-adv-x="548" 
d="M503 217q0 48 -18 89.5t-49 72.5t-72.5 49t-89.5 18t-89.5 -18t-72.5 -49t-49 -72.5t-18 -89.5t18 -89.5t49 -72.5t72.5 -49t89.5 -18t89.5 18t72.5 49t49 72.5t18 89.5zM406 217q0 -29 -9.5 -55t-26.5 -45.5t-41.5 -30.5t-54.5 -11t-54.5 11t-41.5 30.5t-26.5 45.5
t-9.5 55t9.5 55t26.5 45.5t41.5 30.5t54.5 11t54.5 -11t41.5 -30.5t26.5 -45.5t9.5 -55z" />
    <glyph glyph-name="p" unicode="p" horiz-adv-x="584" 
d="M539 217q0 49 -16 91t-45 72.5t-69 48t-88 17.5q-42 0 -82 -21t-61 -55v23q0 20 -14.5 34.5t-34.5 14.5t-34.5 -14.5t-14.5 -34.5v-540q0 -20 14.5 -34t34.5 -14t34.5 14t14.5 34v212q19 -35 59.5 -56t83.5 -21q49 0 89 17.5t68.5 48t44.5 72.5t16 91zM441 217
q0 -29 -9.5 -55t-26.5 -45.5t-41.5 -30.5t-54.5 -11t-54 11t-41.5 30t-26.5 45t-9 56t9 56t26.5 45t41.5 30t54 11t54.5 -11t41.5 -30.5t26.5 -45.5t9.5 -55z" />
    <glyph glyph-name="q" unicode="q" horiz-adv-x="583" 
d="M503 -147v540q0 20 -14.5 34.5t-34.5 14.5t-34.5 -14.5t-14.5 -34.5v-23q-21 34 -61 55t-82 21q-48 0 -87.5 -17.5t-68.5 -48t-45 -72.5t-16 -91t15.5 -91t44 -72.5t68.5 -48t89 -17.5q43 0 83.5 21t59.5 56v-212q0 -20 14.5 -34t34.5 -14t34.5 14t14.5 34zM405 217
q0 -30 -9 -56t-26.5 -45t-41.5 -30t-54 -11t-54.5 11t-41.5 30.5t-26.5 45.5t-9.5 55t9.5 55t26.5 45.5t41.5 30.5t54.5 11t54 -11t41.5 -30t26.5 -45t9 -56z" />
    <glyph glyph-name="r" unicode="r" horiz-adv-x="385" 
d="M375 403q0 18 -12.5 30.5t-30.5 12.5q-52 0 -88 -17t-66 -57v21q0 20 -15 34.5t-35 14.5t-34 -14.5t-14 -34.5v-352q0 -20 14.5 -34.5t34.5 -14.5t34.5 14.5t14.5 34.5v189q0 32 13 56.5t34.5 40.5t49 24t57.5 8q18 0 30.5 13t12.5 31z" />
    <glyph glyph-name="s" unicode="s" horiz-adv-x="487" 
d="M427 122q0 28 -11.5 48.5t-32 36.5t-49 28t-62.5 23q-28 9 -47.5 15.5t-31.5 13t-17 14.5t-5 20q0 24 23 34t63 10q30 0 58.5 -7t55.5 -20q6 -3 14 -3q28 0 38 26q3 7 3 14q0 24 -27 37q-32 15 -66 24.5t-84 9.5q-36 0 -67.5 -8.5t-54.5 -24.5t-36 -38t-13 -50
q0 -47 32.5 -77t95.5 -52q38 -13 63 -22.5t39.5 -17.5t20.5 -16.5t6 -19.5q0 -15 -9 -25t-23.5 -16t-33 -9t-36.5 -3q-32 0 -63.5 9t-59.5 26q-9 6 -20 6q-21 0 -31 -23q-4 -10 -4 -15q0 -24 24 -38q35 -21 79 -32.5t81 -11.5q45 0 80 10.5t59 29t36.5 43t12.5 51.5z" />
    <glyph glyph-name="t" unicode="t" horiz-adv-x="374" 
d="M355 393q0 17 -11.5 28.5t-28.5 11.5h-84v144q0 20 -14.5 34t-34.5 14t-34.5 -14t-14.5 -34v-144h-73q-17 0 -28.5 -11.5t-11.5 -28.5t11.5 -29t28.5 -12h73v-312q0 -20 14.5 -34t34.5 -14t34.5 14t14.5 34v312h84q17 0 28.5 12t11.5 29z" />
    <glyph glyph-name="u" unicode="u" horiz-adv-x="575" 
d="M495 42v352q0 20 -14.5 34t-34.5 14t-34 -14t-14 -34v-198q0 -24 -7.5 -46t-22.5 -38.5t-36.5 -26.5t-49.5 -10q-54 0 -82 34.5t-28 85.5v199q0 20 -14.5 34t-34.5 14t-34 -14t-14 -34v-202q0 -44 12 -81.5t35 -64.5t56.5 -42.5t76.5 -15.5q44 0 82.5 21.5t60.5 54.5v-22
q0 -20 14.5 -35t34.5 -15t34 15t14 35z" />
    <glyph glyph-name="v" unicode="v" horiz-adv-x="436" 
d="M424 397q0 14 -7.5 25.5t-19.5 16.5q-8 3 -16 3q-13 0 -24 -7t-16 -19l-123 -274l-122 274q-5 12 -16 19t-24 7q-8 0 -18 -4q-11 -5 -18.5 -15.5t-7.5 -24.5q0 -10 4 -18l163 -362q5 -11 15.5 -18.5t23.5 -7.5t24 7.5t16 18.5l162 362q4 8 4 17z" />
    <glyph glyph-name="w" unicode="w" horiz-adv-x="651" 
d="M629 398q0 14 -7.5 25t-19.5 16q-8 3 -17 3q-14 0 -24.5 -7.5t-15.5 -20.5l-94 -253l-86 252q-5 13 -15.5 21t-24.5 8t-24.5 -8t-15.5 -21l-86 -252l-93 254q-5 13 -15.5 20t-24.5 7q-10 0 -17 -3q-12 -5 -19.5 -16t-7.5 -25q0 -9 3 -16l136 -362q5 -13 16.5 -20.5
t25.5 -7.5t24.5 8t15.5 21l82 241l82 -241q5 -13 16 -21t25 -8t25 7.5t16 20.5l136 362q4 10 4 16z" />
    <glyph glyph-name="x" unicode="x" horiz-adv-x="446" 
d="M406 35q0 16 -8 27l-120 157l117 154q9 12 9 26q0 22 -18 35q-11 8 -26 8q-22 0 -34 -17l-103 -135l-104 135q-12 17 -34 17q-7 0 -14 -2.5t-12 -6.5q-17 -12 -17 -34q0 -16 9 -26l118 -154l-120 -157q-9 -12 -9 -27q0 -21 16 -34q10 -9 27 -9q22 0 34 17l106 139
l106 -139q12 -17 34 -17q16 0 27 9q16 13 16 34z" />
    <glyph glyph-name="y" unicode="y" horiz-adv-x="467" 
d="M442 398q0 14 -8 25t-21 16q-8 3 -14 3q-13 0 -24 -7t-16 -19l-122 -274l-123 274q-5 12 -16 19t-24 7q-10 0 -17 -3q-12 -5 -19.5 -16.5t-7.5 -25.5q0 -5 10.5 -31.5t27 -64t35.5 -80t36.5 -81t30.5 -67t17 -36.5q-23 -51 -61 -90t-91 -63q-12 -5 -19.5 -14.5
t-7.5 -23.5q0 -17 11.5 -29.5t28.5 -12.5q6 0 16 4q76 29 129 86t85 128l160 358q4 8 4 18z" />
    <glyph glyph-name="z" unicode="z" horiz-adv-x="491" 
d="M436 388q0 18 -13 31.5t-34 13.5h-293q-17 0 -29 -11.5t-12 -28.5t12 -29t29 -12h206l-236 -280q-11 -14 -11 -30q0 -17 12.5 -29.5t28.5 -12.5h298q17 0 28.5 12t11.5 29t-11.5 28.5t-28.5 11.5h-205l237 280q10 11 10 27z" />
    <glyph glyph-name="braceleft" unicode="{" horiz-adv-x="334" 
d="M309 -110q0 12 -8.5 21t-20.5 9h-25q-23 0 -32.5 12.5t-9.5 35.5v184q0 28 -6.5 52t-21.5 41.5t-39.5 27t-60.5 9.5q36 0 60.5 10t39.5 27.5t21.5 41.5t6.5 53v184q0 23 9.5 35.5t32.5 12.5h25q12 0 20.5 8.5t8.5 20.5t-8.5 20t-20.5 8h-64q-27 0 -44 -8t-27.5 -21.5
t-14.5 -32t-4 -39.5v-207q0 -44 -22.5 -62.5t-56.5 -20.5h-8q-12 0 -20.5 -8.5t-8.5 -20.5q0 -16 13 -24q3 -3 8 -4.5t10 -1.5q35 0 60 -18.5t25 -64.5v-207q0 -21 4 -39.5t14.5 -32t27.5 -21.5t44 -8h64q12 0 20.5 8t8.5 20z" />
    <glyph glyph-name="bar" unicode="|" horiz-adv-x="273" 
d="M168 -126v869q0 13 -9 22.5t-22 9.5t-22.5 -9.5t-9.5 -22.5v-869q0 -13 9.5 -22.5t22.5 -9.5t22 9.5t9 22.5z" />
    <glyph glyph-name="braceright" unicode="}" horiz-adv-x="334" 
d="M324 283q0 16 -13 24q-7 5 -18 5q-35 0 -60 18.5t-25 64.5v207q0 21 -4 39.5t-14 32t-27 21.5t-44 8h-65q-12 0 -20.5 -8t-8.5 -20t8.5 -20.5t20.5 -8.5h26q23 0 32.5 -12.5t9.5 -35.5v-184q0 -29 6.5 -53t21 -41.5t39 -27.5t60.5 -10q-36 0 -60.5 -9.5t-39 -27
t-21 -41.5t-6.5 -52v-184q0 -23 -9.5 -35.5t-32.5 -12.5h-26q-12 0 -20.5 -9t-8.5 -21t8.5 -20t20.5 -8h65q27 0 44 8t27 21.5t14 32t4 39.5v207q0 44 22.5 62.5t56.5 20.5h9q11 0 19.5 9t8.5 21z" />
    <glyph glyph-name="asciitilde" unicode="~" horiz-adv-x="502" 
d="M462 332q0 13 -10 23q-10 8 -20 8q-5 0 -7 -1q-14 -5 -21.5 -14t-15 -19t-18.5 -17t-32 -7q-20 0 -39.5 9.5t-40.5 21.5t-44.5 21.5t-50.5 9.5q-41 0 -72 -20.5t-48 -58.5q-3 -6 -3 -15q0 -13 8 -21q10 -10 24 -10q5 0 7 1q13 4 20.5 13.5t15.5 19t19.5 16.5t33.5 7
q24 0 44 -9.5t40.5 -21.5t41.5 -21.5t46 -9.5q40 0 71 23t48 57q3 7 3 15z" />
    <glyph glyph-name="quotesinglbase" unicode="&#x201a;" horiz-adv-x="309" 
d="M214 32q0 29 -15 52t-47 23q-23 0 -40 -17t-17 -40q0 -25 17 -40t36 -18q0 -38 -17 -68t-37 -55q-4 -6 -4 -11q0 -12 11 -18q6 -3 12 -3q10 0 17 7q38 36 61 85.5t23 102.5z" />
    <glyph glyph-name="florin" unicode="&#x192;" horiz-adv-x="525" 
d="M505 633q3 17 -6.5 29t-26.5 12h-37q-88 0 -134.5 -46.5t-59.5 -125.5l-19 -112h-60q-17 0 -31 -11.5t-17 -28.5t6.5 -28.5t26.5 -11.5h60l-61 -344q-8 -43 -29.5 -61.5t-59.5 -18.5h-24q-21 0 -32.5 -11.5t-14.5 -28.5t6.5 -28.5t26.5 -11.5h32q87 0 133.5 46.5
t60.5 124.5l60 333h85q17 0 31 11.5t17 28.5t-6.5 28.5t-26.5 11.5h-86l21 123q7 43 29.5 61.5t60.5 18.5h28q20 0 32 11.5t15 28.5z" />
    <glyph glyph-name="quotedblbase" unicode="&#x201e;" horiz-adv-x="491" 
d="M396 32q0 29 -15 52t-47 23q-23 0 -40 -17t-17 -40q0 -25 17 -40t36 -18q0 -38 -17 -68t-37 -55q-3 -5 -3 -11q0 -12 10 -18q6 -3 12 -3q10 0 17 7q38 36 61 85.5t23 102.5zM214 32q0 29 -15 52t-47 23q-23 0 -40 -17t-17 -40q0 -25 17 -40t36 -18q0 -38 -17 -68t-37 -55
q-4 -6 -4 -11q0 -12 11 -18q6 -3 12 -3q10 0 17 7q38 36 61 85.5t23 102.5z" />
    <glyph glyph-name="ellipsis" unicode="&#x2026;" horiz-adv-x="876" 
d="M781 51q0 23 -17 40t-40 17t-40 -17t-17 -40t17 -40t40 -17t40 17t17 40zM495 51q0 23 -17 40t-40 17t-40 -17t-17 -40t17 -40t40 -17t40 17t17 40zM209 51q0 23 -17 40t-40 17t-40 -17t-17 -40t17 -40t40 -17t40 17t17 40z" />
    <glyph glyph-name="dagger" unicode="&#x2020;" horiz-adv-x="447" 
d="M392 468q0 14 -10.5 24.5t-24.5 10.5h-95v133q0 16 -11.5 27.5t-27.5 11.5t-27 -11.5t-11 -27.5v-133h-95q-14 0 -24.5 -10.5t-10.5 -24.5t10.5 -24.5t24.5 -10.5h95v-537q0 -16 11 -27.5t27 -11.5t27.5 11.5t11.5 27.5v537h95q14 0 24.5 10.5t10.5 24.5z" />
    <glyph glyph-name="daggerdbl" unicode="&#x2021;" horiz-adv-x="447" 
d="M392 16q0 14 -10.5 24.5t-24.5 10.5h-95v382h95q14 0 24.5 10.5t10.5 24.5t-10.5 25t-24.5 11h-95v132q0 16 -11.5 27.5t-27.5 11.5t-27.5 -11.5t-11.5 -27.5v-132h-94q-14 0 -24.5 -11t-10.5 -25t10.5 -24.5t24.5 -10.5h94v-382h-94q-14 0 -24.5 -10.5t-10.5 -24.5
t10.5 -25t24.5 -11h94v-131q0 -16 11.5 -27.5t27.5 -11.5t27.5 11.5t11.5 27.5v131h95q14 0 24.5 11t10.5 25z" />
    <glyph glyph-name="circumflex" unicode="&#x2c6;" horiz-adv-x="342" 
d="M307 522q0 17 -14 26l-103 65q-9 6 -19 6q-9 0 -17 -4l-104 -67q-15 -10 -15 -25q0 -8 5 -18q9 -15 27 -15q9 0 17 5l87 56l88 -56q8 -5 18 -5q15 0 25 15q5 8 5 17z" />
    <glyph glyph-name="perthousand" unicode="&#x2030;" horiz-adv-x="1184" 
d="M1139 142q0 32 -12 60.5t-33 49.5t-49.5 33t-60.5 12t-60.5 -12t-49.5 -33t-33 -49.5t-12 -60.5t12 -60.5t33 -49.5t49.5 -33t60.5 -12t60.5 12t49.5 33t33 49.5t12 60.5zM759 142q0 32 -12 60.5t-33 49.5t-49.5 33t-60.5 12t-60.5 -12t-49.5 -33t-33 -49.5t-12 -60.5
t12 -60.5t33 -49.5t49.5 -33t60.5 -12t60.5 12t49.5 33t33 49.5t12 60.5zM600 643q0 19 -15 28q-8 3 -15 3q-8 0 -14.5 -3.5t-10.5 -11.5l-345 -624q-4 -7 -4 -15q0 -17 16 -25q8 -4 13 -4q19 0 27 15l344 624q4 8 4 13zM355 523q0 32 -12 60.5t-33 49.5t-49.5 33t-60.5 12
t-60.5 -12t-49.5 -33t-33 -49.5t-12 -60.5t12 -60.5t33 -49.5t49.5 -33t60.5 -12t60.5 12t49.5 33t33 49.5t12 60.5zM1070 142q0 -38 -22 -65t-64 -27t-64 27t-22 65t22 65t64 27t64 -27t22 -65zM690 142q0 -38 -22 -65t-64 -27t-64 27t-22 65t22 65t64 27t64 -27t22 -65z
M287 523q0 -38 -22.5 -65t-64.5 -27t-64 27t-22 65t22 65t64 27t64.5 -27t22.5 -65z" />
    <glyph glyph-name="guilsinglleft" unicode="&#x2039;" horiz-adv-x="457" 
d="M332 30q0 15 -12 27l-143 146l143 145q12 12 12 27t-11 26q-12 12 -27 12q-16 0 -27 -11l-171 -172q-11 -11 -11 -27q0 -17 11 -28l171 -172q11 -11 26 -11q16 0 27 11q12 12 12 27z" />
    <glyph glyph-name="OE" unicode="&#x152;" horiz-adv-x="1150" 
d="M1105 50q0 21 -14.5 35.5t-35.5 14.5h-333v190h178q21 0 35 14.5t14 35.5t-14 35.5t-35 14.5h-178v176h318q21 0 35.5 15t14.5 36t-14.5 35t-35.5 14h-372q-23 0 -38.5 -15t-15.5 -38v-26q-45 43 -103 67.5t-127 24.5q-72 0 -134 -27.5t-107.5 -74.5t-71.5 -110t-26 -133
q0 -71 26 -133.5t71.5 -110t107.5 -75t134 -27.5q69 0 127 24.5t103 67.5v-26q0 -23 15.5 -38.5t38.5 -15.5h387q21 0 35.5 14.5t14.5 35.5zM615 334q0 -50 -16.5 -95t-47 -79t-73 -54t-94.5 -20t-95 20t-73.5 54t-47 79t-16.5 95t16.5 94.5t47 78.5t73.5 53.5t95 19.5
t94.5 -19.5t73 -53.5t47 -78.5t16.5 -94.5z" />
    <glyph glyph-name="quoteleft" unicode="&#x2018;" horiz-adv-x="309" 
d="M219 654q0 12 -11 18q-6 3 -12 3q-10 0 -17 -7q-38 -36 -61 -85.5t-23 -102.5q0 -29 15 -52t47 -23q23 0 40 17t17 40q0 25 -17 40t-36 18q0 38 17 68t37 55q4 6 4 11z" />
    <glyph glyph-name="quoteright" unicode="&#x2019;" horiz-adv-x="308" 
d="M213 600q0 29 -15 52t-47 23q-23 0 -40 -17t-17 -40q0 -25 17 -40t36 -18q0 -38 -17 -68t-37 -55q-3 -5 -3 -11q0 -12 10 -18q6 -3 12 -3q10 0 17 7q38 36 61 85.5t23 102.5z" />
    <glyph glyph-name="quotedblleft" unicode="&#x201c;" horiz-adv-x="491" 
d="M401 654q0 12 -11 18q-6 3 -12 3q-10 0 -17 -7q-38 -36 -61 -85.5t-23 -102.5q0 -29 15 -52t47 -23q23 0 40 17t17 40q0 25 -17 40t-36 18q0 38 17 68t37 55q4 6 4 11zM218 654q0 12 -10 18q-6 3 -12 3q-10 0 -17 -7q-38 -36 -61 -85.5t-23 -102.5q0 -29 15 -52t47 -23
q23 0 40 17t17 40q0 25 -17 40t-36 18q0 38 17 68t37 55q3 4 3 11z" />
    <glyph glyph-name="quotedblright" unicode="&#x201d;" horiz-adv-x="491" 
d="M396 600q0 29 -15 52t-47 23q-23 0 -40 -17t-17 -40q0 -25 17 -40t36 -18q0 -38 -17 -68t-37 -55q-3 -5 -3 -11q0 -12 10 -18q6 -3 12 -3q10 0 17 7q38 36 61 85.5t23 102.5zM214 600q0 29 -15 52t-47 23q-23 0 -40 -17t-17 -40q0 -25 17 -40t36 -18q0 -38 -17 -68
t-37 -55q-4 -6 -4 -11q0 -12 11 -18q6 -3 12 -3q10 0 17 7q38 36 61 85.5t23 102.5z" />
    <glyph glyph-name="bullet" unicode="&#x2022;" horiz-adv-x="404" 
d="M329 363q0 26 -10 49t-27.5 40.5t-40.5 27.5t-49 10t-49.5 -10t-40.5 -27.5t-27 -40.5t-10 -49t10 -49.5t27 -40.5t40.5 -27t49.5 -10t49 10t40.5 27t27.5 40.5t10 49.5z" />
    <glyph glyph-name="endash" unicode="&#x2013;" horiz-adv-x="592" 
d="M507 266q0 18 -13 31t-31 13h-334q-18 0 -31 -13t-13 -31t13 -30.5t31 -12.5h334q18 0 31 12.5t13 30.5z" />
    <glyph glyph-name="emdash" unicode="&#x2014;" horiz-adv-x="945" 
d="M860 269q0 18 -13.5 31t-31.5 13h-686q-18 0 -31 -13t-13 -31t13 -31t31 -13h686q18 0 31.5 13t13.5 31z" />
    <glyph glyph-name="tilde" unicode="&#x2dc;" horiz-adv-x="350" 
d="M315 565q0 10 -9 19t-21 9q-5 0 -7 -1q-11 -5 -22 -14.5t-28 -9.5q-13 0 -24.5 4.5t-23.5 9.5t-24 9.5t-27 4.5q-11 0 -25 -4t-27.5 -11t-24 -17t-15.5 -21q-2 -4 -2 -11q0 -12 8 -20q10 -8 22 -8q6 0 8 1q6 3 11.5 7.5t11.5 9t13.5 8t19.5 3.5q14 0 26 -4t23 -9.5
t23 -9.5t26 -4q11 0 24.5 3.5t25.5 10t22 15.5t14 21q2 6 2 9z" />
    <glyph glyph-name="trademark" unicode="&#x2122;" horiz-adv-x="729" 
d="M684 366v279q0 10 -7.5 17.5t-17.5 7.5q-16 0 -23 -15l-112 -237l-113 237q-7 15 -22 15q-10 0 -17 -7t-7 -17v-280q0 -10 7 -17.5t17 -7.5t17 7.5t7 17.5v177l90 -188q6 -14 21 -14t21 13q12 27 27.5 60t29.5 61.5t23.5 48l9.5 19.5v-177q0 -10 7 -17.5t17 -7.5
t17.5 7.5t7.5 17.5zM301 642q0 10 -7 17t-17 7h-238q-10 0 -17 -7t-7 -17t7 -17t17 -7h93v-250q0 -11 7.5 -18.5t18.5 -7.5t18.5 7.5t7.5 18.5v250h93q10 0 17 7t7 17z" />
    <glyph glyph-name="guilsinglright" unicode="&#x203a;" horiz-adv-x="457" 
d="M372 203q0 15 -12 27l-170 172q-11 11 -27 11t-27 -11t-11 -27t11 -27l143 -145l-143 -146q-11 -11 -11 -27q0 -15 12 -27q11 -11 27 -11q15 0 26 11l170 172q12 12 12 28z" />
    <glyph glyph-name="oe" unicode="&#x153;" horiz-adv-x="891" 
d="M846 219q0 48 -16.5 89.5t-46 72t-69.5 48t-87 17.5q-55 0 -101 -23.5t-77 -63.5q-32 40 -78.5 63.5t-101.5 23.5q-48 0 -89.5 -18t-72.5 -49t-49 -72.5t-18 -89.5t18 -89.5t49 -72.5t72.5 -49t89.5 -18q55 0 101.5 23.5t78.5 64.5q32 -41 78.5 -64.5t101.5 -23.5
q53 0 102 20.5t81 54.5q15 15 15 32q0 14 -8 23q-13 16 -33 16q-13 0 -23 -9q-26 -26 -59 -40t-71 -14q-54 0 -90.5 33t-40.5 83h309q14 0 24.5 9t10.5 23zM750 257h-247q8 48 40.5 77.5t83.5 29.5q50 0 83 -30.5t40 -76.5zM401 217q0 -29 -9.5 -55t-26.5 -45.5t-41.5 -30.5
t-54.5 -11t-54.5 11t-41.5 30.5t-26.5 45.5t-9.5 55t9.5 55t26.5 45.5t41.5 30.5t54.5 11t54.5 -11t41.5 -30.5t26.5 -45.5t9.5 -55z" />
    <glyph glyph-name="Ydieresis" unicode="&#x178;" horiz-adv-x="608" 
d="M436 769q0 20 -14 34.5t-34 14.5t-34 -14.5t-14 -34.5t14 -34t34 -14t34 14t14 34zM266 769q0 20 -14 34.5t-34 14.5t-34 -14.5t-14 -34.5t14 -34t34 -14t34 14t14 34zM588 626q0 23 -18 38q-14 11 -31 11q-25 0 -39 -19l-196 -268l-196 268q-14 19 -39 19q-17 0 -30 -10
q-19 -14 -19 -38q0 -17 10 -30l221 -297v-254q0 -22 15 -38t38 -16q22 0 38 16t16 38v255l221 296q9 12 9 29z" />
    <glyph glyph-name="exclamdown" unicode="&#xa1;" horiz-adv-x="325" 
d="M220 618q0 23 -17.5 40t-40.5 17t-40 -17t-17 -40t17 -40t40 -17t40.5 17t17.5 40zM211 40v165l-2.5 28.5t-6.5 69t-8.5 85.5t-7.5 79q-1 10 -7.5 16.5t-16.5 6.5t-16 -6.5t-7 -16.5q-3 -33 -7.5 -78.5t-8 -86t-6.5 -69l-3 -28.5v-165q0 -20 14 -34t34 -14t34.5 14
t14.5 34z" />
    <glyph glyph-name="cent" unicode="&#xa2;" horiz-adv-x="503" 
d="M453 89q0 16 -10 27q-12 13 -30 13q-14 0 -27 -11q-20 -17 -41.5 -29t-50.5 -15v286q20 -2 38.5 -9t36.5 -21q12 -9 26 -9q21 0 33 16q9 10 9 24q0 10 -3.5 19.5t-11.5 15.5q-30 25 -61.5 36t-66.5 13v55q0 8 -5.5 13.5t-13.5 5.5t-13 -5.5t-5 -13.5v-55
q-45 -3 -83.5 -22t-67 -50t-45 -71t-16.5 -85t16.5 -85t45 -71t67 -50t83.5 -22v-56q0 -8 5 -13t13 -5t13.5 5t5.5 13v56q44 5 83.5 24.5t62.5 45.5q13 15 13 30zM257 74q-26 3 -47.5 16t-36.5 32t-23.5 43.5t-8.5 51.5t8.5 51.5t23.5 43.5t36.5 32t47.5 16v-286z" />
    <glyph glyph-name="sterling" unicode="&#xa3;" horiz-adv-x="722" 
d="M657 609q0 15 -9.5 26.5t-26.5 17.5q-18 6 -41.5 11t-48 8t-47.5 4.5t-41 1.5q-55 0 -100 -15.5t-77 -45.5t-49.5 -73.5t-17.5 -99.5v-74h-63q-19 0 -32.5 -13.5t-13.5 -32.5t13.5 -32.5t32.5 -13.5h63v-186h-82q-19 0 -33 -13t-14 -32t14 -33t33 -14h442q19 0 32 14
t13 33t-13 32t-32 13h-259v186h165q19 0 32 13.5t13 32.5t-13 32.5t-32 13.5h-165v73q0 72 37.5 108t108.5 36q38 0 75.5 -5t72.5 -16q4 -2 8 -2h9q20 0 33 12.5t13 32.5z" />
    <glyph glyph-name="currency" unicode="&#xa4;" horiz-adv-x="782" 
d="M732 150q0 20 -15 34q-7 7 -16 10t-18 3q-22 0 -35 -15q-14 -16 -31 -33t-39.5 -31t-52 -23t-68.5 -9t-72.5 11t-60.5 31t-47.5 47.5t-32.5 60.5h127q14 0 23 9t9 23t-9 23t-23 9h-143q-1 8 -1.5 16.5t-0.5 16.5t0.5 16t1.5 16h143q14 0 23 9t9 23t-9 23t-23 9h-128
q12 33 32.5 60.5t47.5 47.5t61 31.5t73 11.5q51 0 88 -16t73 -47q15 -12 32 -12q22 0 36 17q12 13 12 32t-18 37q-45 44 -102.5 65.5t-120.5 21.5q-59 0 -111.5 -19t-95 -52t-73 -78.5t-45.5 -99.5h-85q-14 0 -23 -9t-9 -23t9 -23t23 -9h73q-1 -8 -1 -16v-16v-17q0 -8 1 -16
h-73q-14 0 -23 -9t-9 -23t9 -23t23 -9h85q15 -53 45.5 -98.5t73 -79t95 -52.5t111.5 -19q76 0 146 35t116 94q13 16 13 34z" />
    <glyph glyph-name="yen" unicode="&#xa5;" horiz-adv-x="609" 
d="M589 626q0 23 -18 38q-14 11 -32 11q-24 0 -38 -19l-197 -268l-196 268q-14 19 -39 19q-17 0 -29 -9q-20 -15 -20 -39q0 -17 10 -30l180 -241h-78q-13 0 -21.5 -9t-8.5 -21t8.5 -21t21.5 -9h119v-61h-119q-13 0 -21.5 -8.5t-8.5 -21.5q0 -12 8.5 -21t21.5 -9h119v-129
q0 -22 15 -38t38 -16t38.5 15.5t15.5 38.5v129h119q12 0 21 9t9 21t-9 21t-21 9h-119v61h119q12 0 21 9t9 21t-9 21t-21 9h-77l179 241q10 13 10 29z" />
    <glyph glyph-name="section" unicode="&#xa7;" horiz-adv-x="602" 
d="M537 -36q0 27 -8.5 48.5t-24.5 39t-37.5 32t-48.5 28.5q52 18 84 54.5t32 80.5q0 28 -6.5 50.5t-23.5 42t-47 37t-77 35.5q-32 12 -66 23.5t-63 24.5t-47.5 29t-18.5 37q0 23 13 36.5t32.5 21t41 9.5t38.5 2q33 0 74 -9.5t79 -27.5q9 -4 20 -4q23 0 34 20q5 10 5 20
q0 22 -22 35q-41 23 -91 36t-109 13q-33 0 -71 -7t-70.5 -23.5t-54 -43.5t-21.5 -68q0 -30 11 -52.5t29.5 -40t42 -31.5t48.5 -27q-26 -5 -49.5 -16t-41 -27.5t-28 -37.5t-10.5 -45q0 -53 26 -86.5t65 -55t84 -35.5t84 -29t65 -34.5t26 -52.5q0 -26 -15.5 -42t-38 -25
t-48 -12t-44.5 -3q-45 0 -84 11.5t-81 33.5q-10 5 -18 5q-11 1 -20.5 -3.5t-15.5 -14.5q-5 -8 -5 -21q0 -20 19 -33q46 -30 101 -45t112 -15q37 0 79 8.5t78 27.5t59.5 50t23.5 76zM432 250q0 -23 -10.5 -40t-28 -27.5t-40 -15.5t-46.5 -5q-20 0 -41 6t-38 17.5t-28.5 28.5
t-11.5 39q0 23 12 37.5t30.5 23t39.5 12t39 3.5t39.5 -4t40 -13t31 -24.5t12.5 -37.5z" />
    <glyph glyph-name="dieresis" unicode="&#xa8;" horiz-adv-x="387" 
d="M327 551q0 20 -14 34.5t-34 14.5t-34 -14.5t-14 -34.5t14 -34t34 -14t34 14t14 34zM156 551q0 20 -14 34.5t-34 14.5t-34 -14.5t-14 -34.5t14 -34t34 -14t34 14t14 34z" />
    <glyph glyph-name="copyright" unicode="&#xa9;" horiz-adv-x="802" 
d="M747 333q0 71 -27 134t-74 110t-109.5 74t-134.5 27q-71 0 -134.5 -27t-110.5 -74t-74.5 -110t-27.5 -134t27.5 -134t74.5 -110t110.5 -74.5t134.5 -27.5t134 27.5t110 74.5t74 110t27 134zM703 333q0 -62 -23.5 -117.5t-64.5 -97t-95.5 -65.5t-117.5 -24t-118 24
t-96 65.5t-64.5 97t-23.5 117.5t23.5 117t64.5 96.5t96 65.5t118 24t117.5 -24t95.5 -65.5t64.5 -96.5t23.5 -117zM536 241q0 9 -7 16t-17 7q-8 0 -15 -6q-38 -34 -85 -34q-43 0 -72 31t-29 78t29 77.5t72 30.5q40 0 72 -23q6 -5 16 -5q11 0 19 9q5 6 5 15q0 10 -9 19
q-23 18 -47 26.5t-56 8.5q-33 0 -62 -12.5t-50.5 -34t-34 -50t-12.5 -61.5t12.5 -61.5t34 -50.5t50.5 -34.5t62 -12.5q32 0 64 13.5t52 35.5q8 10 8 18z" />
    <glyph glyph-name="ordfeminine" unicode="&#xaa;" horiz-adv-x="400" 
d="M325 402v156q0 66 -38.5 93t-101.5 27q-20 0 -52.5 -5.5t-58.5 -20.5q-16 -10 -16 -25q0 -6 3 -10q4 -8 10.5 -11.5t14.5 -3.5q7 0 10 2q19 8 39 12.5t44 4.5q42 0 61 -13.5t19 -48.5v-25q-17 16 -41 23.5t-50 7.5q-48 0 -80.5 -25.5t-32.5 -73.5q0 -21 9 -39.5t24 -31.5
t35 -20.5t43 -7.5q27 0 53 10.5t40 31.5v-7q0 -14 9 -23.5t23 -9.5t24 9.5t10 23.5zM258 466q0 -12 -6.5 -21.5t-17 -15.5t-23 -9t-25.5 -3q-12 0 -23.5 2.5t-21 8.5t-15.5 15t-6 23q0 26 21 37t46 11q12 0 25 -2.5t23 -8t16.5 -14.5t6.5 -23z" />
    <glyph glyph-name="guillemotleft" unicode="&#xab;" horiz-adv-x="685" 
d="M560 30q0 17 -11 28l-143 145l142 145q12 12 12 27t-12 27t-27 12q-16 0 -27 -11l-169 -173q-12 -12 -12 -27t12 -27l169 -172q12 -12 27 -12q14 0 25 9q14 12 14 29zM331 30q0 17 -11 28l-143 145l143 145q11 11 11 27q0 17 -13 28q-11 11 -25 11q-16 0 -27 -11
l-170 -173q-11 -11 -11 -27t11 -27l170 -172q12 -12 27 -12q16 0 27 11t11 27z" />
    <glyph glyph-name="logicalnot" unicode="&#xac;" horiz-adv-x="635" 
d="M540 36v231q0 18 -13 31t-31 13h-409q-18 0 -30 -13t-12 -31t12 -30.5t30 -12.5h366v-188q0 -18 12.5 -31t30.5 -13t31 13t13 31z" />
    <glyph glyph-name="registered" unicode="&#xae;" horiz-adv-x="802" 
d="M747 333q0 72 -27 134.5t-74 109.5t-109.5 74t-134.5 27q-71 0 -134.5 -27t-110.5 -74t-74.5 -109.5t-27.5 -134.5q0 -71 27.5 -134t74.5 -110t110.5 -74.5t134.5 -27.5q72 0 134.5 27.5t109.5 74.5t74 110t27 134zM703 333q0 -62 -23.5 -117.5t-64 -97t-95.5 -65.5
t-118 -24t-118 24t-96 65.5t-64.5 97t-23.5 117.5t23.5 117t64.5 96.5t96 65.5t118 24t118 -24t95.5 -65.5t64 -96.5t23.5 -117zM534 392q0 42 -27.5 66t-77.5 24h-117q-11 0 -19 -8t-8 -19v-253q0 -11 8 -19.5t19 -8.5t19.5 8.5t8.5 19.5v100h87l14.5 -30t40.5 -84
q4 -9 17 -13q10 -3 20 2q14 8 14 25q0 3 -1.5 8t-3.5 7q-20 42 -33.5 68.5l-13.5 26.5q25 9 39 30t14 50zM479 390q0 -15 -10 -27t-33 -12h-96v80h96q23 0 33 -13t10 -28z" />
    <glyph glyph-name="macron" unicode="&#xaf;" horiz-adv-x="451" 
d="M366 557q0 12 -8.5 20.5t-20.5 8.5h-224q-12 0 -20 -8.5t-8 -20.5t8 -20.5t20 -8.5h224q12 0 20.5 8.5t8.5 20.5z" />
    <glyph glyph-name="macron" unicode="&#x2c9;" horiz-adv-x="451" 
d="M366 557q0 12 -8.5 20.5t-20.5 8.5h-224q-12 0 -20 -8.5t-8 -20.5t8 -20.5t20 -8.5h224q12 0 20.5 8.5t8.5 20.5z" />
    <glyph glyph-name="degree" unicode="&#xb0;" horiz-adv-x="397" 
d="M342 534q0 30 -11.5 56t-31 45.5t-45.5 31t-56 11.5t-56 -11.5t-45.5 -31t-30.5 -45.5t-11 -56t11 -56t30.5 -45.5t45.5 -30.5t56 -11t56 11t45.5 30.5t31 45.5t11.5 56zM285 534q0 -37 -24.5 -63t-62.5 -26t-62.5 26t-24.5 63t24.5 63.5t62.5 26.5t62.5 -26.5
t24.5 -63.5z" />
    <glyph glyph-name="plusminus" unicode="&#xb1;" horiz-adv-x="918" 
d="M813 315q0 14 -10 24l-256 255q-10 10 -25 10t-25 -10q-9 -9 -9 -24q0 -16 9 -25l199 -197h-557q-14 0 -24 -9.5t-10 -23.5t10 -24t24 -10h557l-199 -197q-9 -9 -9 -25q0 -15 9 -24q10 -10 25 -10t25 10l256 255q10 10 10 25z" />
    <glyph glyph-name="acute" unicode="&#xb4;" horiz-adv-x="365" 
d="M280 616q0 14 -7 22q-12 15 -30 15q-11 0 -21 -7l-122 -84q-15 -11 -15 -30q0 -11 6 -20q12 -17 31 -17q11 0 20 6l122 85q16 11 16 30z" />
    <glyph glyph-name="mu" unicode="&#xb5;" horiz-adv-x="576" 
d="M496 394q0 20 -15 34t-35 14t-34 -14t-14 -34v-198q0 -24 -7.5 -46t-22.5 -38.5t-36.5 -26.5t-49.5 -10q-54 0 -82 35t-28 86v198q0 20 -14.5 34t-34.5 14t-34 -14t-14 -34v-541q0 -20 14.5 -34t34.5 -14t34 14t14 34v154q38 -19 84 -19q44 0 82 21.5t60 54.5v-22
q0 -20 14.5 -35t34.5 -15t34 15t14 35z" />
    <glyph glyph-name="mu" unicode="&#x3bc;" horiz-adv-x="576" 
d="M496 394q0 20 -15 34t-35 14t-34 -14t-14 -34v-198q0 -24 -7.5 -46t-22.5 -38.5t-36.5 -26.5t-49.5 -10q-54 0 -82 35t-28 86v198q0 20 -14.5 34t-34.5 14t-34 -14t-14 -34v-541q0 -20 14.5 -34t34.5 -14t34 14t14 34v154q38 -19 84 -19q44 0 82 21.5t60 54.5v-22
q0 -20 14.5 -35t34.5 -15t34 15t14 35z" />
    <glyph glyph-name="paragraph" unicode="&#xb6;" horiz-adv-x="545" 
d="M440 -173v807q0 13 -9 22.5t-22 9.5h-174q-35 0 -66 -13.5t-54 -36.5t-36.5 -54t-13.5 -66t13 -66t36 -54t54 -36.5t66 -13.5v-499q0 -13 9 -22t22 -9t22.5 9t9.5 22v781h80v-781q0 -13 9.5 -22t22.5 -9t22 9t9 22z" />
    <glyph glyph-name="periodcentered" unicode="&#xb7;" horiz-adv-x="304" 
d="M209 332q0 23 -17 39.5t-40 16.5t-40 -16.5t-17 -39.5t17 -40.5t40 -17.5t40 17.5t17 40.5z" />
    <glyph glyph-name="periodcentered" unicode="&#x2219;" horiz-adv-x="304" 
d="M209 332q0 23 -17 39.5t-40 16.5t-40 -16.5t-17 -39.5t17 -40.5t40 -17.5t40 17.5t17 40.5z" />
    <glyph glyph-name="cedilla" unicode="&#xb8;" horiz-adv-x="322" 
d="M267 -126q0 20 -8.5 35t-22.5 24.5t-31 14.5t-35 5q-10 0 -23 -1t-25 -4l17 52h-39q-1 -3 -4.5 -13t-7.5 -22t-7 -23t-3 -15q0 -18 19 -18q11 0 22 2.5t22 2.5q10 0 21 -2t20 -6.5t15 -12.5t6 -21q0 -26 -18.5 -36.5t-41.5 -10.5q-17 0 -31 2t-30 6q-10 2 -18.5 -3
t-8.5 -18q0 -7 5 -14q6 -7 17 -11t23 -6.5t24 -3t21 -0.5q22 0 44 6t39 18t28 30.5t11 42.5z" />
    <glyph glyph-name="ordmasculine" unicode="&#xba;" horiz-adv-x="411" 
d="M361 523q0 32 -12 60.5t-33 49.5t-49.5 33t-60.5 12t-60.5 -12t-49.5 -33t-33.5 -49.5t-12.5 -60.5t12.5 -60.5t33.5 -49.5t49.5 -33.5t60.5 -12.5t60.5 12.5t49.5 33.5t33 49.5t12 60.5zM295 523q0 -40 -24 -68t-65 -28t-65.5 28t-24.5 68t24.5 68t65.5 28t65 -28
t24 -68z" />
    <glyph glyph-name="guillemotright" unicode="&#xbb;" horiz-adv-x="680" 
d="M600 203q0 16 -11 27l-170 173q-11 11 -27 11q-15 0 -26 -11q-12 -11 -12 -28q0 -16 11 -27l143 -145l-143 -145q-11 -11 -11 -28q0 -16 11 -27t27 -11q15 0 27 12l170 172q11 11 11 27zM372 203q0 15 -12 27l-169 173q-11 11 -27 11q-15 0 -27 -12t-12 -27t12 -27
l142 -145l-143 -145q-11 -11 -11 -28q0 -18 13 -29q10 -9 26 -9q15 0 27 12l169 172q12 12 12 27z" />
    <glyph glyph-name="questiondown" unicode="&#xbf;" horiz-adv-x="563" 
d="M352 618q0 23 -16.5 40t-39.5 17t-40 -17t-17 -40t17 -40t40 -17t39.5 17t16.5 40zM498 78q0 12 -5 21q-13 23 -39 23q-11 0 -21 -6q-32 -19 -63 -28t-75 -9q-21 0 -42 4t-38 13.5t-28 25t-11 37.5q0 25 13 47.5t32 44t41 42.5t41 44q17 21 28.5 47.5t13.5 68.5
q1 20 -14 34t-35 14t-32.5 -14t-15.5 -34q-4 -23 -10.5 -40t-19.5 -35q-11 -16 -32 -37.5t-47 -47.5q-29 -30 -46.5 -63t-17.5 -75q0 -44 19.5 -76t51 -52.5t71 -30t80.5 -9.5q18 0 41 3t47.5 9t48 15.5t42.5 22.5q11 7 16.5 18t5.5 23z" />
    <glyph glyph-name="Agrave" unicode="&#xc0;" 
d="M366 750q0 19 -15 30l-122 84q-11 7 -21 7q-18 0 -30 -15q-7 -8 -7 -22q0 -19 16 -30l122 -85q9 -6 20 -6q19 0 31 17q6 9 6 20zM646 43q0 12 -4 21l-263 581q-6 14 -18.5 22t-27.5 8t-27.5 -8.5t-18.5 -21.5l-263 -581q-4 -9 -4 -22q0 -14 7.5 -27t21.5 -19q9 -4 20 -4
q14 0 27.5 8t19.5 22l63 142h308l63 -142q6 -14 19 -22t27 -8q9 0 21 5q14 6 21.5 19t7.5 27zM446 255h-226l113 253z" />
    <glyph glyph-name="Aacute" unicode="&#xc1;" 
d="M500 834q0 12 -8 22q-12 15 -30 15q-11 0 -21 -7l-121 -84q-16 -11 -16 -30q0 -11 6 -20q12 -17 31 -17q11 0 20 6l123 85q16 11 16 30zM646 43q0 12 -4 21l-263 581q-6 14 -18.5 22t-27.5 8t-27.5 -8.5t-18.5 -21.5l-263 -581q-4 -9 -4 -22q0 -14 7.5 -27t21.5 -19
q9 -4 20 -4q14 0 27.5 8t19.5 22l63 142h308l63 -142q6 -14 19 -22t27 -8q9 0 21 5q14 6 21.5 19t7.5 27zM446 255h-226l113 253z" />
    <glyph glyph-name="Acircumflex" unicode="&#xc2;" 
d="M476 748q0 16 -15 26l-102 65q-9 6 -19 6q-9 0 -17 -4l-104 -67q-15 -10 -15 -25q0 -8 5 -18q9 -15 27 -15q8 0 16 5l88 56l88 -56q8 -5 18 -5q15 0 25 15q5 8 5 17zM646 43q0 12 -4 21l-263 581q-6 14 -18.5 22t-27.5 8t-27.5 -8.5t-18.5 -21.5l-263 -581q-4 -9 -4 -22
q0 -14 7.5 -27t21.5 -19q9 -4 20 -4q14 0 27.5 8t19.5 22l63 142h308l63 -142q6 -14 19 -22t27 -8q9 0 21 5q14 6 21.5 19t7.5 27zM446 255h-226l113 253z" />
    <glyph glyph-name="Atilde" unicode="&#xc3;" 
d="M480 784q0 11 -8 19q-9 9 -21 9q-5 0 -7 -1q-11 -5 -22 -14.5t-28 -9.5q-13 0 -24.5 4.5t-23.5 9.5t-24 9.5t-27 4.5q-11 0 -25 -4t-27.5 -11t-24 -17t-15.5 -21q-2 -4 -2 -11q0 -12 8 -20q10 -8 22 -8q6 0 8 1q6 3 11.5 7.5t11.5 9t13.5 8t19.5 3.5q14 0 26 -4t23 -9.5
t23 -9.5t26 -4q11 0 24.5 3.5t25.5 10t22 15.5t14 21q1 3 1 9zM646 43q0 12 -4 21l-263 581q-6 14 -18.5 22t-27.5 8t-27.5 -8.5t-18.5 -21.5l-263 -581q-4 -9 -4 -22q0 -14 7.5 -27t21.5 -19q9 -4 20 -4q14 0 27.5 8t19.5 22l63 142h308l63 -142q6 -14 19 -22t27 -8
q9 0 21 5q14 6 21.5 19t7.5 27zM446 255h-226l113 253z" />
    <glyph glyph-name="Adieresis" unicode="&#xc4;" 
d="M474 769q0 20 -14.5 34.5t-34.5 14.5t-34 -14.5t-14 -34.5t14 -34t34 -14t34.5 14t14.5 34zM303 769q0 20 -14 34.5t-34 14.5t-34 -14.5t-14 -34.5t14 -34t34 -14t34 14t14 34zM646 43q0 12 -4 21l-263 581q-6 14 -18.5 22t-27.5 8t-27.5 -8.5t-18.5 -21.5l-263 -581
q-4 -9 -4 -22q0 -14 7.5 -27t21.5 -19q9 -4 20 -4q14 0 27.5 8t19.5 22l63 142h308l63 -142q6 -14 19 -22t27 -8q9 0 21 5q14 6 21.5 19t7.5 27zM446 255h-226l113 253z" />
    <glyph glyph-name="Aring" unicode="&#xc5;" 
d="M434 796q0 39 -27 66t-66 27q-19 0 -36 -7t-30 -20t-20.5 -30t-7.5 -36q0 -20 7.5 -37t20 -29.5t29.5 -20t37 -7.5q19 0 36 7.5t30 20.5t20 30t7 36zM391 796q0 -22 -13.5 -37t-36.5 -15t-37 15t-14 37q0 21 14.5 36t36.5 15t36 -15t14 -36zM646 43q0 12 -4 21l-263 581
q-6 14 -18.5 22t-27.5 8t-27.5 -8.5t-18.5 -21.5l-263 -581q-4 -9 -4 -22q0 -14 7.5 -27t21.5 -19q9 -4 20 -4q14 0 27.5 8t19.5 22l63 142h308l63 -142q6 -14 19 -22t27 -8q9 0 21 5q14 6 21.5 19t7.5 27zM446 255h-226l113 253z" />
    <glyph glyph-name="AE" unicode="&#xc6;" horiz-adv-x="1022" 
d="M977 50q0 21 -14.5 35.5t-35.5 14.5h-334v190h178q21 0 35.5 14.5t14.5 35.5t-14.5 35.5t-35.5 14.5h-178v176h318q21 0 36 15t15 36t-14.5 35t-35.5 14h-408q-24 0 -38 -19l-436 -578q-10 -13 -10 -30q0 -25 19 -38q13 -10 32 -10q23 2 36 19l113 150h266v-106
q0 -23 15.5 -38.5t38.5 -15.5h387q21 0 35.5 14.5t14.5 35.5zM486 250h-197l197 264v-264z" />
    <glyph glyph-name="Ccedilla" unicode="&#xc7;" horiz-adv-x="708" 
d="M658 150q0 20 -15 34q-7 7 -16 10t-18 3q-21 0 -34 -15q-14 -16 -31 -33t-40 -31.5t-52.5 -23.5t-68.5 -9q-53 0 -95.5 20t-72.5 54.5t-46 79t-16 94.5q0 49 16 94t46 78.5t72.5 53.5t95.5 20q51 0 88 -15.5t73 -46.5q15 -12 33 -12q21 0 35 17q12 13 12 32q0 20 -17 37
q-45 44 -103 65.5t-121 21.5q-72 0 -134 -27.5t-107 -74.5t-71 -110t-26 -133q0 -71 26 -133.5t71 -110t107 -75t134 -27.5q76 0 146.5 34.5t116.5 93.5q12 15 12 35zM524 -126q0 20 -8.5 35t-22.5 24.5t-31 14.5t-35 5q-10 0 -23 -1t-25 -4l17 52h-39q-1 -3 -4.5 -13
t-7.5 -22t-7 -23t-3 -15q0 -18 19 -18q11 0 22 2.5t22 2.5q10 0 21 -2t20 -6.5t15 -12.5t6 -21q0 -26 -18.5 -36.5t-41.5 -10.5q-17 0 -31 2t-30 6q-10 2 -18.5 -3t-8.5 -18q0 -7 5 -14q6 -7 17 -11t23 -6.5t24 -3t21 -0.5q22 0 44 6t39 18t28 30.5t11 42.5z" />
    <glyph glyph-name="Egrave" unicode="&#xc8;" horiz-adv-x="640" 
d="M380 750q0 19 -15 30l-121 84q-11 7 -22 7q-18 0 -30 -15q-7 -8 -7 -22q0 -19 16 -30l122 -85q9 -6 21 -6q19 0 31 17q5 7 5 20zM595 50q0 21 -14.5 35.5t-35.5 14.5h-333v190h178q21 0 35.5 14.5t14.5 35.5t-14.5 35.5t-35.5 14.5h-178v176h318q21 0 36 15t15 36t-15 35
t-36 14h-371q-23 0 -38.5 -15t-15.5 -38v-559q0 -23 15.5 -38.5t38.5 -15.5h386q21 0 35.5 14.5t14.5 35.5z" />
    <glyph glyph-name="Eacute" unicode="&#xc9;" horiz-adv-x="640" 
d="M478 834q0 12 -8 22q-12 15 -29 15q-12 0 -22 -7l-121 -84q-15 -11 -15 -30q0 -13 5 -20q12 -17 31 -17q12 0 21 6l122 85q16 11 16 30zM595 50q0 21 -14.5 35.5t-35.5 14.5h-333v190h178q21 0 35.5 14.5t14.5 35.5t-14.5 35.5t-35.5 14.5h-178v176h318q21 0 36 15t15 36
t-15 35t-36 14h-371q-23 0 -38.5 -15t-15.5 -38v-559q0 -23 15.5 -38.5t38.5 -15.5h386q21 0 35.5 14.5t14.5 35.5z" />
    <glyph glyph-name="Ecircumflex" unicode="&#xca;" horiz-adv-x="640" 
d="M474 748q0 16 -15 26l-102 65q-9 6 -19 6q-9 0 -17 -4l-104 -67q-15 -10 -15 -25q0 -8 5 -18q9 -15 27 -15q8 0 16 5l88 56l88 -56q8 -5 18 -5q15 0 25 15q5 8 5 17zM595 50q0 21 -14.5 35.5t-35.5 14.5h-333v190h178q21 0 35.5 14.5t14.5 35.5t-14.5 35.5t-35.5 14.5
h-178v176h318q21 0 36 15t15 36t-15 35t-36 14h-371q-23 0 -38.5 -15t-15.5 -38v-559q0 -23 15.5 -38.5t38.5 -15.5h386q21 0 35.5 14.5t14.5 35.5z" />
    <glyph glyph-name="Edieresis" unicode="&#xcb;" horiz-adv-x="640" 
d="M470 769q0 20 -14 34.5t-34 14.5t-34 -14.5t-14 -34.5t14 -34t34 -14t34 14t14 34zM300 769q0 20 -14 34.5t-34 14.5t-34.5 -14.5t-14.5 -34.5t14.5 -34t34.5 -14t34 14t14 34zM595 50q0 21 -14.5 35.5t-35.5 14.5h-333v190h178q21 0 35.5 14.5t14.5 35.5t-14.5 35.5
t-35.5 14.5h-178v176h318q21 0 36 15t15 36t-15 35t-36 14h-371q-23 0 -38.5 -15t-15.5 -38v-559q0 -23 15.5 -38.5t38.5 -15.5h386q21 0 35.5 14.5t14.5 35.5z" />
    <glyph glyph-name="Igrave" unicode="&#xcc;" horiz-adv-x="317" 
d="M190 750q0 19 -16 30l-121 84q-11 7 -21 7q-18 0 -30 -15q-8 -10 -8 -22q0 -19 16 -30l123 -85q9 -6 20 -6q19 0 31 17q6 9 6 20zM212 46v575q0 23 -15 38.5t-38 15.5t-38.5 -15.5t-15.5 -38.5v-575q0 -23 15.5 -38.5t38.5 -15.5t38 15.5t15 38.5z" />
    <glyph glyph-name="Iacute" unicode="&#xcd;" horiz-adv-x="317" 
d="M322 834q0 12 -8 22q-12 15 -30 15q-11 0 -21 -7l-121 -84q-16 -11 -16 -30q0 -11 6 -20q12 -17 31 -17q11 0 20 6l123 85q16 11 16 30zM212 46v575q0 23 -15 38.5t-38 15.5t-38.5 -15.5t-15.5 -38.5v-575q0 -23 15.5 -38.5t38.5 -15.5t38 15.5t15 38.5z" />
    <glyph glyph-name="Icircumflex" unicode="&#xce;" horiz-adv-x="317" 
d="M295 748q0 16 -15 26l-102 65q-9 6 -20 6q-8 0 -16 -4l-105 -67q-15 -10 -15 -25q0 -8 5 -18q9 -15 27 -15q9 0 17 5l87 56l88 -56q8 -5 18 -5q16 0 26 15q5 8 5 17zM212 46v575q0 23 -15 38.5t-38 15.5t-38.5 -15.5t-15.5 -38.5v-575q0 -23 15.5 -38.5t38.5 -15.5
t38 15.5t15 38.5z" />
    <glyph glyph-name="Idieresis" unicode="&#xcf;" horiz-adv-x="317" 
d="M292 769q0 20 -14 34.5t-34 14.5t-34 -14.5t-14 -34.5t14 -34t34 -14t34 14t14 34zM121 769q0 20 -14 34.5t-34 14.5t-34 -14.5t-14 -34.5t14 -34t34 -14t34 14t14 34zM212 46v575q0 23 -15 38.5t-38 15.5t-38.5 -15.5t-15.5 -38.5v-575q0 -23 15.5 -38.5t38.5 -15.5
t38 15.5t15 38.5z" />
    <glyph glyph-name="Ntilde" unicode="&#xd1;" horiz-adv-x="753" 
d="M519 784q0 10 -9 19t-21 9q-5 0 -7 -1q-11 -5 -22 -14.5t-28 -9.5q-13 0 -24.5 4.5t-23.5 9.5t-24 9.5t-27 4.5q-11 0 -25 -4t-27.5 -11t-24 -17t-15.5 -21q-2 -4 -2 -11q0 -12 8 -20q10 -8 22 -8q6 0 8 1q6 3 11.5 7.5t11.5 9t13.5 8t19.5 3.5q14 0 26 -4t23 -9.5
t23 -9.5t26 -4q11 0 24.5 3.5t25.5 10t22 15.5t14 21q2 6 2 9zM648 42v582q0 21 -15 36t-36 15t-35.5 -15t-14.5 -36v-442q-39 50 -80 104.5t-80 107t-74 100t-61 83.5t-41.5 57.5l-15.5 21.5q-6 8 -16.5 13.5t-21.5 5.5q-24 0 -38 -15.5t-14 -35.5v-582q0 -21 14.5 -35.5
t35.5 -14.5t36 14.5t15 35.5v443l352 -474q15 -19 39 -19q21 0 36 14.5t15 35.5z" />
    <glyph glyph-name="Ograve" unicode="&#xd2;" horiz-adv-x="767" 
d="M418 750q0 19 -15 30l-122 84q-11 7 -21 7q-18 0 -30 -15q-7 -8 -7 -22q0 -19 16 -30l122 -85q9 -6 20 -6q19 0 31 17q6 9 6 20zM722 333q0 70 -26 133t-71 110t-107 74.5t-134 27.5t-134 -27.5t-107.5 -74.5t-71.5 -110t-26 -133q0 -71 26 -133.5t71.5 -110t107.5 -75
t134 -27.5t134 27.5t107 75t71 110t26 133.5zM615 333q0 -50 -16.5 -95t-47 -78.5t-73 -53.5t-94.5 -20t-95 20t-73.5 53.5t-47 78.5t-16.5 95t16.5 95t47 78.5t73.5 53.5t95 20t94.5 -20t73 -53.5t47 -78.5t16.5 -95z" />
    <glyph glyph-name="Oacute" unicode="&#xd3;" horiz-adv-x="767" 
d="M543 834q0 12 -8 22q-12 15 -30 15q-11 0 -21 -7l-121 -84q-16 -11 -16 -30q0 -11 6 -20q12 -17 31 -17q11 0 20 6l123 85q16 11 16 30zM722 333q0 70 -26 133t-71 110t-107 74.5t-134 27.5t-134 -27.5t-107.5 -74.5t-71.5 -110t-26 -133q0 -71 26 -133.5t71.5 -110
t107.5 -75t134 -27.5t134 27.5t107 75t71 110t26 133.5zM615 333q0 -50 -16.5 -95t-47 -78.5t-73 -53.5t-94.5 -20t-95 20t-73.5 53.5t-47 78.5t-16.5 95t16.5 95t47 78.5t73.5 53.5t95 20t94.5 -20t73 -53.5t47 -78.5t16.5 -95z" />
    <glyph glyph-name="Ocircumflex" unicode="&#xd4;" horiz-adv-x="767" 
d="M519 748q0 17 -14 26l-103 65q-9 6 -19 6q-9 0 -17 -4l-104 -67q-15 -10 -15 -25q0 -8 5 -18q9 -15 27 -15q9 0 17 5l87 56l88 -56q8 -5 18 -5q15 0 25 15q5 8 5 17zM722 333q0 70 -26 133t-71 110t-107 74.5t-134 27.5t-134 -27.5t-107.5 -74.5t-71.5 -110t-26 -133
q0 -71 26 -133.5t71.5 -110t107.5 -75t134 -27.5t134 27.5t107 75t71 110t26 133.5zM615 333q0 -50 -16.5 -95t-47 -78.5t-73 -53.5t-94.5 -20t-95 20t-73.5 53.5t-47 78.5t-16.5 95t16.5 95t47 78.5t73.5 53.5t95 20t94.5 -20t73 -53.5t47 -78.5t16.5 -95z" />
    <glyph glyph-name="Otilde" unicode="&#xd5;" horiz-adv-x="767" 
d="M523 784q0 10 -9 19t-21 9q-5 0 -7 -1q-11 -5 -21.5 -14.5t-27.5 -9.5q-13 0 -25 4.5t-23.5 9.5t-24 9.5t-27.5 4.5q-11 0 -25 -4t-27 -11t-23.5 -17t-15.5 -21q-3 -6 -3 -11q0 -11 9 -20q10 -8 22 -8q6 0 8 1q6 3 11 7.5t11 9t13.5 8t19.5 3.5q14 0 26 -4t23.5 -9.5
t23.5 -9.5t26 -4q11 0 24.5 3.5t25.5 10t21.5 15.5t13.5 21q2 6 2 9zM722 333q0 70 -26 133t-71 110t-107 74.5t-134 27.5t-134 -27.5t-107.5 -74.5t-71.5 -110t-26 -133q0 -71 26 -133.5t71.5 -110t107.5 -75t134 -27.5t134 27.5t107 75t71 110t26 133.5zM615 333
q0 -50 -16.5 -95t-47 -78.5t-73 -53.5t-94.5 -20t-95 20t-73.5 53.5t-47 78.5t-16.5 95t16.5 95t47 78.5t73.5 53.5t95 20t94.5 -20t73 -53.5t47 -78.5t16.5 -95z" />
    <glyph glyph-name="Odieresis" unicode="&#xd6;" horiz-adv-x="767" 
d="M517 769q0 20 -14.5 34.5t-34.5 14.5t-34 -14.5t-14 -34.5t14 -34t34 -14t34.5 14t14.5 34zM346 769q0 20 -14 34.5t-34 14.5t-34 -14.5t-14 -34.5t14 -34t34 -14t34 14t14 34zM722 333q0 70 -26 133t-71 110t-107 74.5t-134 27.5t-134 -27.5t-107.5 -74.5t-71.5 -110
t-26 -133q0 -71 26 -133.5t71.5 -110t107.5 -75t134 -27.5t134 27.5t107 75t71 110t26 133.5zM615 333q0 -50 -16.5 -95t-47 -78.5t-73 -53.5t-94.5 -20t-95 20t-73.5 53.5t-47 78.5t-16.5 95t16.5 95t47 78.5t73.5 53.5t95 20t94.5 -20t73 -53.5t47 -78.5t16.5 -95z" />
    <glyph glyph-name="Oslash" unicode="&#xd8;" horiz-adv-x="767" 
d="M722 333q0 91 -41.5 167t-112.5 123l48 86q5 8 2 16.5t-11 13.5q-19 10 -29 -8l-47 -86q-33 16 -70 24.5t-77 8.5q-72 0 -134 -27.5t-107.5 -74.5t-71.5 -110t-26 -133q0 -91 41.5 -167.5t112.5 -123.5l-47 -86q-10 -19 9 -29q8 -5 16 -2.5t13 10.5l47 86q33 -16 70 -25
t77 -9q72 0 134 27.5t107 75t71 110t26 133.5zM615 333q0 -50 -16.5 -95t-47 -78.5t-73 -53.5t-94.5 -20q-53 0 -99 22l235 427q45 -34 70 -87t25 -115zM482 558l-235 -428q-45 34 -70 87.5t-25 115.5q0 50 16.5 95t47 78.5t73.5 53.5t95 20q28 0 52 -5.5t46 -16.5z" />
    <glyph glyph-name="Ugrave" unicode="&#xd9;" horiz-adv-x="746" 
d="M407 750q0 19 -15 30l-122 84q-11 7 -21 7q-18 0 -30 -15q-7 -8 -7 -22q0 -19 16 -30l122 -85q9 -6 20 -6q19 0 31 17q6 9 6 20zM651 269v352q0 23 -15.5 38.5t-38.5 15.5t-38.5 -15.5t-15.5 -38.5v-367q0 -76 -43.5 -123t-126.5 -47t-127 47t-44 123v367
q0 23 -15.5 38.5t-38.5 15.5t-38 -15.5t-15 -38.5v-352q0 -64 19.5 -116t56 -89t88 -57t114.5 -20t114.5 20t88 57t56 89t19.5 116z" />
    <glyph glyph-name="Uacute" unicode="&#xda;" horiz-adv-x="746" 
d="M524 834q0 14 -7 22q-12 15 -30 15q-11 0 -21 -7l-122 -84q-15 -11 -15 -30q0 -11 6 -20q12 -17 31 -17q11 0 20 6l122 85q16 11 16 30zM651 269v352q0 23 -15.5 38.5t-38.5 15.5t-38.5 -15.5t-15.5 -38.5v-367q0 -76 -43.5 -123t-126.5 -47t-127 47t-44 123v367
q0 23 -15.5 38.5t-38.5 15.5t-38 -15.5t-15 -38.5v-352q0 -64 19.5 -116t56 -89t88 -57t114.5 -20t114.5 20t88 57t56 89t19.5 116z" />
    <glyph glyph-name="Ucircumflex" unicode="&#xdb;" horiz-adv-x="746" 
d="M509 748q0 16 -15 26l-102 65q-9 6 -19 6q-9 0 -17 -4l-104 -67q-15 -10 -15 -25q0 -8 5 -18q9 -15 27 -15q8 0 16 5l88 56l88 -56q8 -5 18 -5q15 0 25 15q5 8 5 17zM651 269v352q0 23 -15.5 38.5t-38.5 15.5t-38.5 -15.5t-15.5 -38.5v-367q0 -76 -43.5 -123t-126.5 -47
t-127 47t-44 123v367q0 23 -15.5 38.5t-38.5 15.5t-38 -15.5t-15 -38.5v-352q0 -64 19.5 -116t56 -89t88 -57t114.5 -20t114.5 20t88 57t56 89t19.5 116z" />
    <glyph glyph-name="Udieresis" unicode="&#xdc;" horiz-adv-x="746" 
d="M506 769q0 20 -14 34.5t-34 14.5t-34 -14.5t-14 -34.5t14 -34t34 -14t34 14t14 34zM336 769q0 20 -14 34.5t-34 14.5t-34 -14.5t-14 -34.5t14 -34t34 -14t34 14t14 34zM651 269v352q0 23 -15.5 38.5t-38.5 15.5t-38.5 -15.5t-15.5 -38.5v-367q0 -76 -43.5 -123
t-126.5 -47t-127 47t-44 123v367q0 23 -15.5 38.5t-38.5 15.5t-38 -15.5t-15 -38.5v-352q0 -64 19.5 -116t56 -89t88 -57t114.5 -20t114.5 20t88 57t56 89t19.5 116z" />
    <glyph glyph-name="germandbls" unicode="&#xdf;" horiz-adv-x="662" 
d="M602 186q0 59 -33 105t-95 63q42 20 65.5 55t23.5 84q0 37 -15.5 71t-45.5 59t-73.5 40t-99.5 15q-53 0 -95.5 -17t-72 -47.5t-45.5 -73t-16 -92.5v-401q0 -22 15.5 -37.5t37.5 -15.5t38 15.5t16 37.5v404q0 59 29.5 95.5t92.5 36.5q65 0 96 -30t31 -73q0 -35 -22.5 -59
t-66.5 -24h-70q-20 0 -34.5 -14t-14.5 -34t14.5 -34t34.5 -14h93q26 0 46 -9t33 -23t19.5 -32.5t6.5 -37.5t-6.5 -37.5t-19.5 -33t-33 -23.5t-46 -9h-93q-20 0 -34.5 -14.5t-14.5 -34.5t14.5 -34.5t34.5 -14.5h80q53 0 94.5 14.5t70.5 40t44.5 60t15.5 73.5z" />
    <glyph glyph-name="agrave" unicode="&#xe0;" horiz-adv-x="503" 
d="M448 41v229q0 48 -15 81.5t-42 54.5t-65 30.5t-84 9.5q-15 0 -35 -1.5t-42 -6t-44.5 -11.5t-41.5 -18q-11 -6 -17 -16t-6 -21q0 -6 4 -16q11 -22 35 -22q9 0 17 3q28 12 57.5 19t64.5 7q61 0 89 -20t28 -71v-38q-24 23 -59.5 34.5t-74.5 11.5q-35 0 -65.5 -9.5t-53 -28
t-35.5 -45.5t-13 -62q0 -32 13.5 -58.5t36 -46.5t52.5 -31t63 -11q40 0 77.5 15t57.5 47v-9q0 -20 14.5 -34.5t34.5 -14.5t34.5 14.5t14.5 34.5zM350 135q0 -18 -9.5 -31.5t-24.5 -22.5t-34 -13.5t-38 -4.5q-17 0 -34.5 4t-31.5 12.5t-23 22t-9 33.5q0 19 8.5 32.5t23 22
t32 12t35.5 3.5t37 -3t34 -11t24.5 -21.5t9.5 -34.5zM281 532q0 19 -15 30l-121 84q-11 7 -22 7q-18 0 -30 -15q-7 -8 -7 -22q0 -19 16 -30l122 -85q9 -6 21 -6q19 0 31 17q5 7 5 20z" />
    <glyph glyph-name="aacute" unicode="&#xe1;" horiz-adv-x="503" 
d="M448 41v229q0 48 -15 81.5t-42 54.5t-65 30.5t-84 9.5q-15 0 -35 -1.5t-42 -6t-44.5 -11.5t-41.5 -18q-11 -6 -17 -16t-6 -21q0 -6 4 -16q11 -22 35 -22q9 0 17 3q28 12 57.5 19t64.5 7q61 0 89 -20t28 -71v-38q-24 23 -59.5 34.5t-74.5 11.5q-35 0 -65.5 -9.5t-53 -28
t-35.5 -45.5t-13 -62q0 -32 13.5 -58.5t36 -46.5t52.5 -31t63 -11q40 0 77.5 15t57.5 47v-9q0 -20 14.5 -34.5t34.5 -14.5t34.5 14.5t14.5 34.5zM350 135q0 -18 -9.5 -31.5t-24.5 -22.5t-34 -13.5t-38 -4.5q-17 0 -34.5 4t-31.5 12.5t-23 22t-9 33.5q0 19 8.5 32.5t23 22
t32 12t35.5 3.5t37 -3t34 -11t24.5 -21.5t9.5 -34.5zM400 616q0 14 -7 22q-12 15 -30 15q-11 0 -21 -7l-122 -84q-15 -11 -15 -30q0 -11 6 -20q12 -17 31 -17q11 0 20 6l122 85q16 11 16 30z" />
    <glyph glyph-name="acircumflex" unicode="&#xe2;" horiz-adv-x="503" 
d="M448 41v229q0 48 -15 81.5t-42 54.5t-65 30.5t-84 9.5q-15 0 -35 -1.5t-42 -6t-44.5 -11.5t-41.5 -18q-11 -6 -17 -16t-6 -21q0 -6 4 -16q11 -22 35 -22q9 0 17 3q28 12 57.5 19t64.5 7q61 0 89 -20t28 -71v-38q-24 23 -59.5 34.5t-74.5 11.5q-35 0 -65.5 -9.5t-53 -28
t-35.5 -45.5t-13 -62q0 -32 13.5 -58.5t36 -46.5t52.5 -31t63 -11q40 0 77.5 15t57.5 47v-9q0 -20 14.5 -34.5t34.5 -14.5t34.5 14.5t14.5 34.5zM350 135q0 -18 -9.5 -31.5t-24.5 -22.5t-34 -13.5t-38 -4.5q-17 0 -34.5 4t-31.5 12.5t-23 22t-9 33.5q0 19 8.5 32.5t23 22
t32 12t35.5 3.5t37 -3t34 -11t24.5 -21.5t9.5 -34.5zM384 522q0 17 -14 26l-103 65q-9 6 -19 6q-9 0 -17 -4l-104 -67q-15 -10 -15 -25q0 -8 5 -18q9 -15 27 -15q9 0 17 5l87 56l88 -56q8 -5 18 -5q15 0 25 15q5 8 5 17z" />
    <glyph glyph-name="atilde" unicode="&#xe3;" horiz-adv-x="503" 
d="M448 41v229q0 48 -15 81.5t-42 54.5t-65 30.5t-84 9.5q-15 0 -35 -1.5t-42 -6t-44.5 -11.5t-41.5 -18q-11 -6 -17 -16t-6 -21q0 -6 4 -16q11 -22 35 -22q9 0 17 3q28 12 57.5 19t64.5 7q61 0 89 -20t28 -71v-38q-24 23 -59.5 34.5t-74.5 11.5q-35 0 -65.5 -9.5t-53 -28
t-35.5 -45.5t-13 -62q0 -32 13.5 -58.5t36 -46.5t52.5 -31t63 -11q40 0 77.5 15t57.5 47v-9q0 -20 14.5 -34.5t34.5 -14.5t34.5 14.5t14.5 34.5zM350 135q0 -18 -9.5 -31.5t-24.5 -22.5t-34 -13.5t-38 -4.5q-17 0 -34.5 4t-31.5 12.5t-23 22t-9 33.5q0 19 8.5 32.5t23 22
t32 12t35.5 3.5t37 -3t34 -11t24.5 -21.5t9.5 -34.5zM387 565q0 10 -9 19t-21 9q-5 0 -7 -1q-11 -5 -22 -14.5t-28 -9.5q-13 0 -24.5 4.5t-23.5 9.5t-24 9.5t-27 4.5q-11 0 -25 -4t-27.5 -11t-24 -17t-15.5 -21q-2 -4 -2 -11q0 -12 8 -20q10 -8 22 -8q6 0 8 1q6 3 11.5 7.5
t11.5 9t13.5 8t19.5 3.5q14 0 26 -4t23 -9.5t23 -9.5t26 -4q11 0 24.5 3.5t25.5 10t22 15.5t14 21q2 6 2 9z" />
    <glyph glyph-name="adieresis" unicode="&#xe4;" horiz-adv-x="503" 
d="M448 41v229q0 48 -15 81.5t-42 54.5t-65 30.5t-84 9.5q-15 0 -35 -1.5t-42 -6t-44.5 -11.5t-41.5 -18q-11 -6 -17 -16t-6 -21q0 -6 4 -16q11 -22 35 -22q9 0 17 3q28 12 57.5 19t64.5 7q61 0 89 -20t28 -71v-38q-24 23 -59.5 34.5t-74.5 11.5q-35 0 -65.5 -9.5t-53 -28
t-35.5 -45.5t-13 -62q0 -32 13.5 -58.5t36 -46.5t52.5 -31t63 -11q40 0 77.5 15t57.5 47v-9q0 -20 14.5 -34.5t34.5 -14.5t34.5 14.5t14.5 34.5zM350 135q0 -18 -9.5 -31.5t-24.5 -22.5t-34 -13.5t-38 -4.5q-17 0 -34.5 4t-31.5 12.5t-23 22t-9 33.5q0 19 8.5 32.5t23 22
t32 12t35.5 3.5t37 -3t34 -11t24.5 -21.5t9.5 -34.5zM388 551q0 20 -14 34.5t-34 14.5t-34 -14.5t-14 -34.5t14 -34t34 -14t34 14t14 34zM217 551q0 20 -14 34.5t-34 14.5t-34 -14.5t-14 -34.5t14 -34t34 -14t34 14t14 34z" />
    <glyph glyph-name="aring" unicode="&#xe5;" horiz-adv-x="503" 
d="M448 41v229q0 48 -15 81.5t-42 54.5t-65 30.5t-84 9.5q-15 0 -35 -1.5t-42 -6t-44.5 -11.5t-41.5 -18q-11 -6 -17 -16t-6 -21q0 -6 4 -16q11 -22 35 -22q9 0 17 3q28 12 57.5 19t64.5 7q61 0 89 -20t28 -71v-38q-24 23 -59.5 34.5t-74.5 11.5q-35 0 -65.5 -9.5t-53 -28
t-35.5 -45.5t-13 -62q0 -32 13.5 -58.5t36 -46.5t52.5 -31t63 -11q40 0 77.5 15t57.5 47v-9q0 -20 14.5 -34.5t34.5 -14.5t34.5 14.5t14.5 34.5zM350 135q0 -18 -9.5 -31.5t-24.5 -22.5t-34 -13.5t-38 -4.5q-17 0 -34.5 4t-31.5 12.5t-23 22t-9 33.5q0 19 8.5 32.5t23 22
t32 12t35.5 3.5t37 -3t34 -11t24.5 -21.5t9.5 -34.5zM340 571q0 39 -27 66t-66 27q-19 0 -36 -7t-30 -20t-20.5 -30t-7.5 -36q0 -20 7.5 -37t20 -29.5t29.5 -20t37 -7.5q19 0 36 7.5t30 20.5t20 30t7 36zM298 571q0 -22 -14 -36.5t-37 -14.5t-37 14.5t-14 36.5q0 21 14.5 36
t36.5 15t36.5 -15t14.5 -36z" />
    <glyph glyph-name="ae" unicode="&#xe6;" horiz-adv-x="845" 
d="M800 219q0 48 -16.5 89.5t-46 72t-70 48t-87.5 17.5q-48 0 -88.5 -17t-70.5 -48q-26 35 -70.5 50t-103.5 15q-15 0 -35 -1.5t-42 -6t-44.5 -11.5t-41.5 -18q-23 -13 -23 -38q0 -7 3 -14q5 -11 15.5 -17t21.5 -6q8 0 16 3q28 12 57 19t64 7q61 0 89 -20t28 -71v-38
q-24 23 -59 34.5t-74 11.5q-35 0 -65.5 -9.5t-53 -28t-35.5 -45.5t-13 -62q0 -32 13 -58.5t37.5 -46.5t59 -31t76.5 -11q64 0 106.5 19.5t67.5 54.5q32 -34 74.5 -54t93.5 -20q53 0 102 20.5t81 54.5q14 14 14 32q0 14 -8 23q-13 18 -34 16q-13 0 -22 -9q-26 -26 -59 -40.5
t-71 -14.5q-27 0 -50 9t-40.5 24.5t-28 37t-12.5 46.5h309q14 0 25 9t11 23zM703 256h-246q8 48 40 78t83 30q50 0 83 -31t40 -77zM355 135q0 -18 -9.5 -31.5t-25 -22.5t-34.5 -13.5t-38 -4.5q-17 0 -34 4t-31 12.5t-23 22t-9 33.5q0 19 8.5 33t22.5 22t31.5 12t35.5 4
t37 -3.5t34.5 -11.5t25 -21.5t9.5 -34.5z" />
    <glyph glyph-name="ccedilla" unicode="&#xe7;" horiz-adv-x="503" 
d="M453 91q0 15 -10 25q-12 13 -31 13q-15 0 -26 -10q-23 -20 -49.5 -33t-62.5 -13q-30 0 -54.5 11.5t-42 31t-27 46t-9.5 55.5t9.5 55.5t27 46t42 31t54.5 11.5q25 0 48.5 -7t46.5 -24q12 -9 27 -9q19 0 32 16q9 12 9 25q0 21 -15 34q-35 29 -70.5 39.5t-77.5 10.5
q-48 0 -89.5 -18t-72.5 -49t-49 -72.5t-18 -89.5t18 -89.5t49 -72.5t72.5 -49t89.5 -18q24 0 48 5.5t46 15.5t40.5 22.5t31.5 27.5q13 14 13 32zM410 -126q0 20 -8.5 35t-22.5 24.5t-31 14.5t-35 5q-10 0 -23 -1t-25 -4l17 52h-39q-1 -3 -4.5 -13t-7.5 -22t-7 -23t-3 -15
q0 -18 19 -18q11 0 22 2.5t22 2.5q10 0 21 -2t20 -6.5t15 -12.5t6 -21q0 -26 -18.5 -36.5t-41.5 -10.5q-17 0 -31 2t-30 6q-10 2 -18.5 -3t-8.5 -18q0 -7 5 -14q6 -7 17 -11t23 -6.5t24 -3t21 -0.5q22 0 44 6t39 18t28 30.5t11 42.5z" />
    <glyph glyph-name="egrave" unicode="&#xe8;" horiz-adv-x="541" 
d="M491 219q0 48 -16.5 89.5t-46 72t-70 48t-87.5 17.5q-48 0 -89 -18t-71.5 -49t-48 -72.5t-17.5 -89.5t18 -89.5t49 -72.5t72.5 -49t89.5 -18q53 0 102 20.5t81 54.5q14 14 14 32q0 12 -8 23q-13 16 -32 16q-15 0 -24 -9q-26 -26 -59 -40.5t-71 -14.5q-27 0 -50 9
t-40.5 24.5t-28 37t-12.5 46.5h309q14 0 25 9t11 23zM394 256h-246q8 48 40 78t83 30q50 0 83 -31t40 -77zM296 532q0 19 -15 30l-121 84q-11 7 -22 7q-18 0 -30 -15q-7 -8 -7 -22q0 -19 16 -30l122 -85q9 -6 21 -6q19 0 31 17q5 7 5 20z" />
    <glyph glyph-name="eacute" unicode="&#xe9;" horiz-adv-x="541" 
d="M491 219q0 48 -16.5 89.5t-46 72t-70 48t-87.5 17.5q-48 0 -89 -18t-71.5 -49t-48 -72.5t-17.5 -89.5t18 -89.5t49 -72.5t72.5 -49t89.5 -18q53 0 102 20.5t81 54.5q14 14 14 32q0 12 -8 23q-13 16 -32 16q-15 0 -24 -9q-26 -26 -59 -40.5t-71 -14.5q-27 0 -50 9
t-40.5 24.5t-28 37t-12.5 46.5h309q14 0 25 9t11 23zM394 256h-246q8 48 40 78t83 30q50 0 83 -31t40 -77zM427 616q0 14 -7 22q-12 15 -30 15q-11 0 -21 -7l-122 -84q-15 -11 -15 -30q0 -11 6 -20q12 -17 31 -17q11 0 20 6l122 85q16 11 16 30z" />
    <glyph glyph-name="ecircumflex" unicode="&#xea;" horiz-adv-x="541" 
d="M491 219q0 48 -16.5 89.5t-46 72t-70 48t-87.5 17.5q-48 0 -89 -18t-71.5 -49t-48 -72.5t-17.5 -89.5t18 -89.5t49 -72.5t72.5 -49t89.5 -18q53 0 102 20.5t81 54.5q14 14 14 32q0 12 -8 23q-13 16 -32 16q-15 0 -24 -9q-26 -26 -59 -40.5t-71 -14.5q-27 0 -50 9
t-40.5 24.5t-28 37t-12.5 46.5h309q14 0 25 9t11 23zM394 256h-246q8 48 40 78t83 30q50 0 83 -31t40 -77zM408 522q0 17 -14 26l-103 65q-9 6 -19 6q-9 0 -17 -4l-104 -67q-15 -10 -15 -25q0 -8 5 -18q9 -15 27 -15q9 0 17 5l87 56l88 -56q8 -5 18 -5q15 0 25 15q5 8 5 17z
" />
    <glyph glyph-name="edieresis" unicode="&#xeb;" horiz-adv-x="541" 
d="M491 219q0 48 -16.5 89.5t-46 72t-70 48t-87.5 17.5q-48 0 -89 -18t-71.5 -49t-48 -72.5t-17.5 -89.5t18 -89.5t49 -72.5t72.5 -49t89.5 -18q53 0 102 20.5t81 54.5q14 14 14 32q0 12 -8 23q-13 16 -32 16q-15 0 -24 -9q-26 -26 -59 -40.5t-71 -14.5q-27 0 -50 9
t-40.5 24.5t-28 37t-12.5 46.5h309q14 0 25 9t11 23zM394 256h-246q8 48 40 78t83 30q50 0 83 -31t40 -77zM406 551q0 20 -14 34.5t-34 14.5t-34 -14.5t-14 -34.5t14 -34t34 -14t34 14t14 34zM235 551q0 20 -14 34.5t-34 14.5t-34 -14.5t-14 -34.5t14 -34t34 -14t34 14
t14 34z" />
    <glyph glyph-name="igrave" unicode="&#xec;" horiz-adv-x="274" 
d="M185 41v352q0 20 -14.5 34.5t-34.5 14.5t-34.5 -14.5t-14.5 -34.5v-352q0 -20 14.5 -34.5t34.5 -14.5t34.5 14.5t14.5 34.5zM282 532q0 19 -15 30l-121 84q-11 7 -22 7q-18 0 -30 -15q-7 -8 -7 -22q0 -19 16 -30l122 -85q9 -6 21 -6q19 0 31 17q5 7 5 20z" />
    <glyph glyph-name="iacute" unicode="&#xed;" horiz-adv-x="274" 
d="M185 41v352q0 20 -14.5 34.5t-34.5 14.5t-34.5 -14.5t-14.5 -34.5v-352q0 -20 14.5 -34.5t34.5 -14.5t34.5 14.5t14.5 34.5zM287 616q0 14 -7 22q-12 15 -30 15q-11 0 -21 -7l-122 -84q-15 -11 -15 -30q0 -11 6 -20q12 -17 31 -17q11 0 20 6l122 85q16 11 16 30z" />
    <glyph glyph-name="icircumflex" unicode="&#xee;" horiz-adv-x="274" 
d="M185 41v352q0 20 -14.5 34.5t-34.5 14.5t-34.5 -14.5t-14.5 -34.5v-352q0 -20 14.5 -34.5t34.5 -14.5t34.5 14.5t14.5 34.5zM359 522q0 17 -14 26l-103 65q-9 6 -19 6q-9 0 -17 -4l-104 -67q-15 -10 -15 -25q0 -8 5 -18q9 -15 27 -15q9 0 17 5l87 56l88 -56q8 -5 18 -5
q15 0 25 15q5 8 5 17z" />
    <glyph glyph-name="idieresis" unicode="&#xef;" horiz-adv-x="274" 
d="M185 41v352q0 20 -14.5 34.5t-34.5 14.5t-34.5 -14.5t-14.5 -34.5v-352q0 -20 14.5 -34.5t34.5 -14.5t34.5 14.5t14.5 34.5zM354 551q0 20 -14 34.5t-34 14.5t-34 -14.5t-14 -34.5t14 -34t34 -14t34 14t14 34zM183 551q0 20 -14 34.5t-34 14.5t-34 -14.5t-14 -34.5
t14 -34t34 -14t34 14t14 34z" />
    <glyph glyph-name="ntilde" unicode="&#xf1;" horiz-adv-x="575" 
d="M500 40v202q0 44 -12 81.5t-35 64.5t-56.5 42.5t-76.5 15.5q-44 0 -82.5 -21.5t-60.5 -54.5v22q0 20 -14.5 35t-34.5 15t-34 -15t-14 -35v-352q0 -20 14.5 -34t34.5 -14t34 14t14 34v198q0 24 7.5 46t22.5 38.5t36.5 26.5t49.5 10q54 0 82 -34.5t28 -85.5v-199
q0 -20 14.5 -34t34.5 -14t34 14t14 34zM431 565q0 10 -9 19t-21 9q-5 0 -7 -1q-11 -5 -22 -14.5t-28 -9.5q-13 0 -24.5 4.5t-23.5 9.5t-24 9.5t-27 4.5q-11 0 -25 -4t-27.5 -11t-24 -17t-15.5 -21q-2 -4 -2 -11q0 -12 8 -20q10 -8 22 -8q6 0 8 1q6 3 11.5 7.5t11.5 9t13.5 8
t19.5 3.5q14 0 26 -4t23 -9.5t23 -9.5t26 -4q11 0 24.5 3.5t25.5 10t22 15.5t14 21q2 6 2 9z" />
    <glyph glyph-name="ograve" unicode="&#xf2;" horiz-adv-x="548" 
d="M503 217q0 48 -18 89.5t-49 72.5t-72.5 49t-89.5 18t-89.5 -18t-72.5 -49t-49 -72.5t-18 -89.5t18 -89.5t49 -72.5t72.5 -49t89.5 -18t89.5 18t72.5 49t49 72.5t18 89.5zM406 217q0 -29 -9.5 -55t-26.5 -45.5t-41.5 -30.5t-54.5 -11t-54.5 11t-41.5 30.5t-26.5 45.5
t-9.5 55t9.5 55t26.5 45.5t41.5 30.5t54.5 11t54.5 -11t41.5 -30.5t26.5 -45.5t9.5 -55zM300 532q0 19 -15 30l-121 84q-11 7 -22 7q-18 0 -30 -15q-7 -8 -7 -22q0 -19 16 -30l122 -85q9 -6 21 -6q19 0 31 17q5 7 5 20z" />
    <glyph glyph-name="oacute" unicode="&#xf3;" horiz-adv-x="548" 
d="M503 217q0 48 -18 89.5t-49 72.5t-72.5 49t-89.5 18t-89.5 -18t-72.5 -49t-49 -72.5t-18 -89.5t18 -89.5t49 -72.5t72.5 -49t89.5 -18t89.5 18t72.5 49t49 72.5t18 89.5zM406 217q0 -29 -9.5 -55t-26.5 -45.5t-41.5 -30.5t-54.5 -11t-54.5 11t-41.5 30.5t-26.5 45.5
t-9.5 55t9.5 55t26.5 45.5t41.5 30.5t54.5 11t54.5 -11t41.5 -30.5t26.5 -45.5t9.5 -55zM425 616q0 14 -7 22q-12 15 -30 15q-11 0 -21 -7l-122 -84q-15 -11 -15 -30q0 -11 6 -20q12 -17 31 -17q11 0 20 6l122 85q16 11 16 30z" />
    <glyph glyph-name="ocircumflex" unicode="&#xf4;" horiz-adv-x="548" 
d="M503 217q0 48 -18 89.5t-49 72.5t-72.5 49t-89.5 18t-89.5 -18t-72.5 -49t-49 -72.5t-18 -89.5t18 -89.5t49 -72.5t72.5 -49t89.5 -18t89.5 18t72.5 49t49 72.5t18 89.5zM406 217q0 -29 -9.5 -55t-26.5 -45.5t-41.5 -30.5t-54.5 -11t-54.5 11t-41.5 30.5t-26.5 45.5
t-9.5 55t9.5 55t26.5 45.5t41.5 30.5t54.5 11t54.5 -11t41.5 -30.5t26.5 -45.5t9.5 -55zM408 522q0 17 -14 26l-103 65q-9 6 -19 6q-9 0 -17 -4l-104 -67q-15 -10 -15 -25q0 -8 5 -18q9 -15 27 -15q9 0 17 5l87 56l88 -56q8 -5 18 -5q15 0 25 15q5 8 5 17z" />
    <glyph glyph-name="otilde" unicode="&#xf5;" horiz-adv-x="548" 
d="M503 217q0 48 -18 89.5t-49 72.5t-72.5 49t-89.5 18t-89.5 -18t-72.5 -49t-49 -72.5t-18 -89.5t18 -89.5t49 -72.5t72.5 -49t89.5 -18t89.5 18t72.5 49t49 72.5t18 89.5zM406 217q0 -29 -9.5 -55t-26.5 -45.5t-41.5 -30.5t-54.5 -11t-54.5 11t-41.5 30.5t-26.5 45.5
t-9.5 55t9.5 55t26.5 45.5t41.5 30.5t54.5 11t54.5 -11t41.5 -30.5t26.5 -45.5t9.5 -55zM416 565q0 10 -9 19t-21 9q-5 0 -7 -1q-11 -5 -22 -14.5t-28 -9.5q-13 0 -24.5 4.5t-23.5 9.5t-24 9.5t-27 4.5q-11 0 -25 -4t-27.5 -11t-24 -17t-15.5 -21q-2 -4 -2 -11q0 -12 8 -20
q10 -8 22 -8q6 0 8 1q6 3 11.5 7.5t11.5 9t13.5 8t19.5 3.5q14 0 26 -4t23 -9.5t23 -9.5t26 -4q11 0 24.5 3.5t25.5 10t22 15.5t14 21q2 6 2 9z" />
    <glyph glyph-name="odieresis" unicode="&#xf6;" horiz-adv-x="548" 
d="M503 217q0 48 -18 89.5t-49 72.5t-72.5 49t-89.5 18t-89.5 -18t-72.5 -49t-49 -72.5t-18 -89.5t18 -89.5t49 -72.5t72.5 -49t89.5 -18t89.5 18t72.5 49t49 72.5t18 89.5zM406 217q0 -29 -9.5 -55t-26.5 -45.5t-41.5 -30.5t-54.5 -11t-54.5 11t-41.5 30.5t-26.5 45.5
t-9.5 55t9.5 55t26.5 45.5t41.5 30.5t54.5 11t54.5 -11t41.5 -30.5t26.5 -45.5t9.5 -55zM405 551q0 20 -14 34.5t-34 14.5t-34 -14.5t-14 -34.5t14 -34t34 -14t34 14t14 34zM234 551q0 20 -14 34.5t-34 14.5t-34 -14.5t-14 -34.5t14 -34t34 -14t34 14t14 34z" />
    <glyph glyph-name="divide" unicode="&#xf7;" horiz-adv-x="488" 
d="M289 312q0 19 -12.5 31.5t-31.5 12.5t-32.5 -12.5t-13.5 -31.5t13.5 -32t32.5 -13t31.5 13t12.5 32zM438 174q0 12 -8 20.5t-20 8.5h-332q-12 0 -20 -8.5t-8 -20.5t8 -20.5t20 -8.5h332q12 0 20 8.5t8 20.5zM289 37q0 19 -12.5 31.5t-31.5 12.5t-32.5 -12.5t-13.5 -31.5
t13.5 -32t32.5 -13t31.5 13t12.5 32z" />
    <glyph glyph-name="oslash" unicode="&#xf8;" horiz-adv-x="548" 
d="M503 217q0 60 -27.5 110t-74.5 81l37 68q4 7 1.5 14.5t-9.5 11.5t-14.5 2t-11.5 -9l-37 -68q-41 19 -93 19q-48 0 -89.5 -18t-72.5 -49t-49 -72.5t-18 -89.5q0 -60 27.5 -109.5t74.5 -80.5l-37 -69q-4 -7 -2 -14.5t9 -11.5t14.5 -1.5t11.5 9.5l37 68q43 -20 94 -20
q48 0 89.5 18t72.5 49t49 72.5t18 89.5zM405 217q0 -29 -9 -55t-26.5 -45.5t-41.5 -30.5t-54 -11q-14 0 -27 2.5t-24 7.5l134 244q23 -20 35.5 -49t12.5 -63zM324 349l-134 -243q-23 20 -35.5 48.5t-12.5 62.5q0 29 9.5 55t26.5 45.5t41.5 30.5t54.5 11q25 0 50 -10z" />
    <glyph glyph-name="ugrave" unicode="&#xf9;" horiz-adv-x="575" 
d="M495 42v352q0 20 -14.5 34t-34.5 14t-34 -14t-14 -34v-198q0 -24 -7.5 -46t-22.5 -38.5t-36.5 -26.5t-49.5 -10q-54 0 -82 34.5t-28 85.5v199q0 20 -14.5 34t-34.5 14t-34 -14t-14 -34v-202q0 -44 12 -81.5t35 -64.5t56.5 -42.5t76.5 -15.5q44 0 82.5 21.5t60.5 54.5v-22
q0 -20 14.5 -35t34.5 -15t34 15t14 35zM313 532q0 19 -15 30l-121 84q-11 7 -22 7q-18 0 -30 -15q-7 -8 -7 -22q0 -19 16 -30l122 -85q9 -6 21 -6q19 0 31 17q5 7 5 20z" />
    <glyph glyph-name="uacute" unicode="&#xfa;" horiz-adv-x="575" 
d="M495 42v352q0 20 -14.5 34t-34.5 14t-34 -14t-14 -34v-198q0 -24 -7.5 -46t-22.5 -38.5t-36.5 -26.5t-49.5 -10q-54 0 -82 34.5t-28 85.5v199q0 20 -14.5 34t-34.5 14t-34 -14t-14 -34v-202q0 -44 12 -81.5t35 -64.5t56.5 -42.5t76.5 -15.5q44 0 82.5 21.5t60.5 54.5v-22
q0 -20 14.5 -35t34.5 -15t34 15t14 35zM442 616q0 14 -7 22q-12 15 -30 15q-11 0 -21 -7l-122 -84q-15 -11 -15 -30q0 -11 6 -20q12 -17 31 -17q11 0 20 6l122 85q16 11 16 30z" />
    <glyph glyph-name="ucircumflex" unicode="&#xfb;" horiz-adv-x="575" 
d="M495 42v352q0 20 -14.5 34t-34.5 14t-34 -14t-14 -34v-198q0 -24 -7.5 -46t-22.5 -38.5t-36.5 -26.5t-49.5 -10q-54 0 -82 34.5t-28 85.5v199q0 20 -14.5 34t-34.5 14t-34 -14t-14 -34v-202q0 -44 12 -81.5t35 -64.5t56.5 -42.5t76.5 -15.5q44 0 82.5 21.5t60.5 54.5v-22
q0 -20 14.5 -35t34.5 -15t34 15t14 35zM419 522q0 17 -14 26l-103 65q-9 6 -19 6q-9 0 -17 -4l-104 -67q-15 -10 -15 -25q0 -8 5 -18q9 -15 27 -15q9 0 17 5l87 56l88 -56q8 -5 18 -5q15 0 25 15q5 8 5 17z" />
    <glyph glyph-name="udieresis" unicode="&#xfc;" horiz-adv-x="575" 
d="M495 42v352q0 20 -14.5 34t-34.5 14t-34 -14t-14 -34v-198q0 -24 -7.5 -46t-22.5 -38.5t-36.5 -26.5t-49.5 -10q-54 0 -82 34.5t-28 85.5v199q0 20 -14.5 34t-34.5 14t-34 -14t-14 -34v-202q0 -44 12 -81.5t35 -64.5t56.5 -42.5t76.5 -15.5q44 0 82.5 21.5t60.5 54.5v-22
q0 -20 14.5 -35t34.5 -15t34 15t14 35zM418 551q0 20 -14 34.5t-34 14.5t-34 -14.5t-14 -34.5t14 -34t34 -14t34 14t14 34zM247 551q0 20 -14 34.5t-34 14.5t-34 -14.5t-14 -34.5t14 -34t34 -14t34 14t14 34z" />
    <glyph glyph-name="ydieresis" unicode="&#xff;" horiz-adv-x="467" 
d="M442 398q0 14 -8 25t-21 16q-8 3 -14 3q-13 0 -24 -7t-16 -19l-122 -274l-123 274q-5 12 -16 19t-24 7q-10 0 -17 -3q-12 -5 -19.5 -16.5t-7.5 -25.5q0 -5 10.5 -31.5t27 -64t35.5 -80t36.5 -81t30.5 -67t17 -36.5q-23 -51 -61 -90t-91 -63q-12 -5 -19.5 -14.5
t-7.5 -23.5q0 -17 11.5 -29.5t28.5 -12.5q6 0 16 4q76 29 129 86t85 128l160 358q4 8 4 18zM374 551q0 20 -14 34.5t-34 14.5t-34 -14.5t-14 -34.5t14 -34t34 -14t34 14t14 34zM203 551q0 20 -14 34.5t-34 14.5t-34 -14.5t-14 -34.5t14 -34t34 -14t34 14t14 34z" />
    <glyph glyph-name="notequal" unicode="&#x2260;" horiz-adv-x="522" 
d="M432 165q0 16 -11 27.5t-27 11.5h-136l42 77h94q16 0 27 11.5t11 27.5t-11 27t-27 11h-56l33 61q7 14 -7 21t-21 -6l-41 -76h-174q-16 0 -27 -11t-11 -27t11 -27.5t27 -11.5h136l-42 -77h-94q-16 0 -27 -11.5t-11 -27.5t11 -27t27 -11h56l-33 -61q-3 -6 -1 -12.5t8 -9.5
q14 -7 21 7l41 76h174q16 0 27 11t11 27z" />
    <glyph glyph-name="infinity" unicode="&#x221e;" horiz-adv-x="918" 
d="M813 315q0 14 -9.5 23.5t-23.5 9.5h-558l199 197q10 10 10 25q0 14 -10 24t-25 10q-14 0 -24 -10l-257 -255q-10 -10 -10 -24q0 -15 10 -25l257 -255q10 -10 24 -10q15 0 25 10t10 24q0 15 -10 25l-199 197h558q14 0 23.5 10t9.5 24z" />
    <glyph glyph-name="lessequal" unicode="&#x2264;" horiz-adv-x="918" 
d="M813 315q0 14 -9.5 23.5t-23.5 9.5h-558l199 197q10 10 10 25q0 14 -10 24t-25 10q-14 0 -24 -10l-257 -255q-10 -10 -10 -24q0 -15 10 -25l257 -255q10 -10 24 -10q15 0 25 10t10 24q0 15 -10 25l-199 197h558q14 0 23.5 10t9.5 24z" />
    <glyph glyph-name="greaterequal" unicode="&#x2265;" horiz-adv-x="918" 
d="M813 315q0 14 -10 24l-256 255q-10 10 -25 10t-25 -10q-9 -9 -9 -24q0 -16 9 -25l199 -197h-557q-14 0 -24 -9.5t-10 -23.5t10 -24t24 -10h557l-199 -197q-9 -9 -9 -25q0 -15 9 -24q10 -10 25 -10t25 10l256 255q10 10 10 25z" />
    <glyph glyph-name="partialdiff" unicode="&#x2202;" horiz-adv-x="790" 
d="M685 279q0 13 -11 24q-10 10 -23 10q-15 0 -25 -10l-198 -199v538q0 14 -9.5 23.5t-23.5 9.5t-23.5 -9.5t-9.5 -23.5v-538l-198 199q-10 10 -24 10t-24 -10q-11 -11 -11 -25q0 -13 11 -24l255 -257q10 -10 24 -10q15 0 24 10l255 257q11 11 11 25z" />
    <glyph glyph-name="summation" unicode="&#x2211;" horiz-adv-x="750" 
d="M637 466q8 11 8.5 23t-9.5 22t-23 9.5t-23 -8.5q-1 0 -3 -2l-3 -3l-389 -390v280q0 15 -10 25t-26 10q-13 0 -24 -11q-10 -10 -10 -24v-362q0 -14 10 -24q11 -11 25 -11h361q15 0 25 10t10 25q0 14 -10 24t-25 10l-280 1l391 389q1 1 3 3.5t2 3.5z" />
    <glyph glyph-name="product" unicode="&#x220f;" horiz-adv-x="750" 
d="M637 466q8 11 8.5 23t-9.5 22t-23 9.5t-23 -8.5q-1 0 -3 -2l-3 -3l-389 -390v280q0 15 -10 25t-26 10q-13 0 -24 -11q-10 -10 -10 -24v-362q0 -14 10 -24q11 -11 25 -11h361q15 0 25 10t10 25q0 14 -10 24t-25 10l-280 1l391 389q1 1 3 3.5t2 3.5z" />
    <glyph glyph-name="pi" unicode="&#x3c0;" horiz-adv-x="750" 
d="M625 35v362q0 14 -10 24q-5 5 -11 8t-14 3q-15 0 -25 -10t-10 -25v-280l-394 394q-10 10 -23 10q-12 0 -22 -9q-9 -9 -11 -16q-2 -5 -1.5 -8.5t1.5 -8.5q1 -7 9 -15l394 -394l-280 -1q-14 0 -24 -10t-10 -24q0 -15 10 -25t24 -10h362q8 0 14 3t11 8q10 10 10 24z" />
    <glyph glyph-name="integral" unicode="&#x222b;" horiz-adv-x="750" 
d="M625 35v362q0 14 -10 24q-5 5 -11 8t-14 3q-15 0 -25 -10t-10 -25v-280l-394 394q-10 10 -23 10q-12 0 -22 -9q-9 -9 -11 -16q-2 -5 -1.5 -8.5t1.5 -8.5q1 -7 9 -15l394 -394l-280 -1q-14 0 -24 -10t-10 -24q0 -15 10 -25t24 -10h362q8 0 14 3t11 8q10 10 10 24z" />
    <glyph glyph-name="Omega" unicode="&#x3a9;" horiz-adv-x="751" 
d="M637 157q9 10 9 23t-10 23l-394 394h280q15 0 25 10t10 25q0 13 -11 24q-10 10 -24 10h-362q-14 0 -24 -10q-5 -5 -8 -10.5t-3 -13.5v-362q0 -15 10 -25t25 -10q14 0 24 10t10 25l1 280l390 -391l3 -3t3 -2q10 -8 22 -8q13 0 24 11z" />
    <glyph glyph-name="Omega" unicode="&#x2126;" horiz-adv-x="751" 
d="M637 157q9 10 9 23t-10 23l-394 394h280q15 0 25 10t10 25q0 13 -11 24q-10 10 -24 10h-362q-14 0 -24 -10q-5 -5 -8 -10.5t-3 -13.5v-362q0 -15 10 -25t25 -10q14 0 24 10t10 25l1 280l390 -391l3 -3t3 -2q10 -8 22 -8q13 0 24 11z" />
    <glyph glyph-name="radical" unicode="&#x221a;" horiz-adv-x="494" 
d="M439 636q0 16 -10 27t-26 12q-13 1 -23.5 -7t-14.5 -20l-161 -532l-90 131q-11 17 -33 15q-15 -1 -26 -12t-10 -27q0 -5 3.5 -12.5t6.5 -12.5l131 -189q12 -17 31 -17q12 0 22.5 7.5t14.5 19.5q2 8 11.5 38.5t23 74.5t30 97.5t33 108.5t32.5 107t28 93.5t19.5 68
t7.5 29.5z" />
    <glyph glyph-name="approxequal" unicode="&#x2248;" horiz-adv-x="750" 
d="M625 270v362q0 13 -11 24q-10 10 -24 10h-362q-14 0 -24 -10q-5 -5 -8 -10.5t-3 -13.5q0 -15 10 -25t25 -10h280l-394 -394q-3 -3 -5.5 -7t-3.5 -9q-3 -8 1 -19q3 -7 10 -14q10 -9 22 -9q13 0 23 10l394 395l1 -280q0 -15 10 -25t24 -10q15 0 25 10t10 25z" />
    <glyph glyph-name="Delta" unicode="&#x394;" horiz-adv-x="790" 
d="M685 387q0 14 -11 25l-255 256q-10 10 -24 10t-24 -10l-255 -256q-11 -11 -11 -26q0 -13 11 -24q9 -9 23 -9q16 0 25 9l198 199v-535q0 -14 9.5 -24t23.5 -10t23.5 10t9.5 24v535l198 -199q9 -9 24 -9t24 9q11 11 11 25z" />
    <glyph glyph-name="Delta" unicode="&#x2206;" horiz-adv-x="790" 
d="M685 387q0 14 -11 25l-255 256q-10 10 -24 10t-24 -10l-255 -256q-11 -11 -11 -26q0 -13 11 -24q9 -9 23 -9q16 0 25 9l198 199v-535q0 -14 9.5 -24t23.5 -10t23.5 10t9.5 24v535l198 -199q9 -9 24 -9t24 9q11 11 11 25z" />
    <glyph glyph-name="nonbreakingspace" unicode="&#xa0;" horiz-adv-x="300" 
 />
    <glyph glyph-name="lozenge" unicode="&#x25ca;" horiz-adv-x="918" 
d="M813 315q0 14 -10 24l-256 255q-10 10 -25 10t-25 -10q-9 -9 -9 -24q0 -16 9 -25l199 -197h-557q-14 0 -24 -9.5t-10 -23.5t10 -24t24 -10h557l-199 -197q-9 -9 -9 -25q0 -15 9 -24q10 -10 25 -10t25 10l256 255q10 10 10 25z" />
    <glyph glyph-name="breve" unicode="&#x2d8;" horiz-adv-x="345" 
d="M300 612q0 14 -10 21t-21 7t-20 -7t-9 -21q0 -27 -18 -42.5t-50 -15.5t-50 16t-18 42q0 16 -10 23t-21 6t-19.5 -8t-8.5 -19q0 -27 11 -47.5t28.5 -34t40.5 -20t47 -6.5t47 6.5t41 20t29 33.5t11 46z" />
    <glyph glyph-name="dotaccent" unicode="&#x2d9;" horiz-adv-x="315" 
d="M210 572q0 22 -15.5 37t-37.5 15t-37 -15t-15 -37t15 -37.5t37 -15.5t37.5 15.5t15.5 37.5z" />
    <glyph glyph-name="Lslash" unicode="&#x141;" horiz-adv-x="634" 
d="M614 50q0 21 -14 35.5t-35 14.5h-321v245l120 40q16 5 23.5 20t2.5 31t-20 24t-31 3l-14.5 -4.5t-32 -10.5t-32.5 -11.5t-16 -5.5v190q0 23 -15.5 38.5t-38.5 15.5t-38 -15.5t-15 -38.5v-227l-85 -28q-16 -5 -23 -20t-2 -31t20 -24t31 -3l9 2.5t19.5 6t20 7t10.5 3.5
v-253q0 -23 15 -38.5t38 -15.5h375q21 0 35 14.5t14 35.5z" />
    <glyph glyph-name="lslash" unicode="&#x142;" horiz-adv-x="417" 
d="M390 441q-5 16 -20 24t-31 3l-12.5 -4t-27.5 -9t-28 -9.5t-14 -4.5v185q0 20 -14.5 34.5t-34.5 14.5t-34.5 -14.5t-14.5 -34.5v-219l-107 -36q-16 -5 -23 -20t-2 -31t20 -24t31 -3l12.5 4t27.5 9t27.5 9.5t13.5 4.5v-279q0 -20 14.5 -34.5t34.5 -14.5t34.5 14.5
t14.5 34.5v313l107 36q16 5 23.5 20t2.5 31z" />
    <glyph glyph-name="Zcaron" unicode="&#x17d;" horiz-adv-x="648" 
d="M469 812q0 8 -5 18q-9 15 -27 15q-9 0 -17 -5l-87 -56l-88 56q-8 5 -18 5q-15 0 -25 -15q-5 -8 -5 -16t3.5 -15t10.5 -12l103 -64q10 -7 19 -7t17 4l104 67q15 10 15 25zM598 50q0 20 -15 35t-35 15h-345l380 485q11 14 11 31q0 20 -15 35t-35 15h-427q-20 0 -35 -14.5
t-15 -34.5t14.5 -35.5t35.5 -15.5h323l-379 -485q-11 -14 -11 -30q0 -27 21 -42q12 -9 30 -9h447q21 0 35.5 15t14.5 35z" />
    <glyph glyph-name="zcaron" unicode="&#x17e;" horiz-adv-x="491" 
d="M376 584q0 8 -5 18q-9 15 -27 15q-8 0 -16 -5l-87 -56l-88 56q-8 5 -19 5q-15 0 -25 -15q-5 -8 -5 -16q0 -17 15 -27l102 -64q10 -7 20 -7q8 0 16 4l105 67q14 9 14 25z" />
    <glyph glyph-name="Scaron" unicode="&#x160;" horiz-adv-x="664" 
d="M483 812q0 8 -5 18q-9 15 -27 15q-8 0 -16 -5l-87 -56l-88 56q-8 5 -19 5q-15 0 -25 -15q-5 -8 -5 -16q0 -17 15 -27l102 -64q10 -7 20 -7q8 0 16 4l105 67q14 9 14 25zM599 182q0 43 -15.5 73t-42.5 51.5t-63 37t-76 29.5q-28 9 -64.5 20.5t-68.5 26.5t-54.5 34
t-22.5 45q0 25 15 41t38 25t49.5 12t49.5 3q50 0 94.5 -13t82.5 -30q11 -4 24 -4q14 0 25.5 6.5t17.5 19.5q5 10 5 23t-6.5 24.5t-20.5 18.5q-23 12 -51 21.5t-57.5 16.5t-59 11t-55.5 4q-47 0 -93 -8.5t-83 -29t-59.5 -55t-22.5 -85.5q0 -42 15 -72.5t39 -52t55.5 -37
t64.5 -27.5q46 -17 88 -29.5t74 -26.5t51.5 -32t19.5 -45q0 -28 -16 -46t-40 -28t-51.5 -14t-51.5 -4q-51 0 -99.5 12t-99.5 43q-16 10 -33 10q-22 0 -37 -18q-5 -6 -7 -13.5t-2 -15.5q0 -12 5 -23t13 -18q24 -21 55.5 -35.5t66.5 -23.5t70.5 -13t66.5 -4q50 0 98 10
t85.5 33t60.5 60.5t23 91.5z" />
    <glyph glyph-name="scaron" unicode="&#x161;" horiz-adv-x="487" 
d="M427 122q0 28 -11.5 48.5t-32 36.5t-49 28t-62.5 23q-28 9 -47.5 15.5t-31.5 13t-17 14.5t-5 20q0 24 23 34t63 10q30 0 58.5 -7t55.5 -20q6 -3 14 -3q28 0 38 26q3 7 3 14q0 24 -27 37q-32 15 -66 24.5t-84 9.5q-36 0 -67.5 -8.5t-54.5 -24.5t-36 -38t-13 -50
q0 -47 32.5 -77t95.5 -52q38 -13 63 -22.5t39.5 -17.5t20.5 -16.5t6 -19.5q0 -15 -9 -25t-23.5 -16t-33 -9t-36.5 -3q-32 0 -63.5 9t-59.5 26q-9 6 -20 6q-21 0 -31 -23q-4 -10 -4 -15q0 -24 24 -38q35 -21 79 -32.5t81 -11.5q45 0 80 10.5t59 29t36.5 43t12.5 51.5z
M389 584q0 8 -5 18q-9 15 -27 15q-8 0 -16 -5l-87 -56l-88 56q-8 5 -19 5q-15 0 -25 -15q-5 -8 -5 -16q0 -17 15 -27l102 -64q10 -7 20 -7q8 0 16 4l105 67q14 9 14 25z" />
    <glyph glyph-name="brokenbar" unicode="&#xa6;" horiz-adv-x="273" 
d="M168 375v368q0 13 -9.5 22.5t-22.5 9.5t-22 -9.5t-9 -22.5v-368q0 -13 9 -22t22 -9t22.5 9t9.5 22zM168 -126v369q0 13 -9.5 22t-22.5 9t-22 -9t-9 -22v-369q0 -13 9 -22.5t22 -9.5t22.5 9.5t9.5 22.5z" />
    <glyph glyph-name="minus" unicode="&#x2212;" horiz-adv-x="448" 
d="M363 266q0 18 -13 31t-31 13h-190q-18 0 -31 -13t-13 -31t13 -31t31 -13h190q18 0 31 13t13 31z" />
    <glyph glyph-name="twosuperior" unicode="&#xb2;" 
d="M499 500v166h-166v-166h166zM666 333v167h-167v-167h167zM166 500v166h-166v-166h166zM333 333v167h-167v-167h167zM499 167v166h-166v-166h166zM666 0v167h-167v-167h167zM166 167v166h-166v-166h166zM333 0v167h-167v-167h167z" />
    <glyph glyph-name="threesuperior" unicode="&#xb3;" 
d="M499 500v166h-166v-166h166zM666 333v167h-167v-167h167zM166 500v166h-166v-166h166zM333 333v167h-167v-167h167zM499 167v166h-166v-166h166zM666 0v167h-167v-167h167zM166 167v166h-166v-166h166zM333 0v167h-167v-167h167z" />
    <glyph glyph-name="onesuperior" unicode="&#xb9;" 
d="M499 500v166h-166v-166h166zM666 333v167h-167v-167h167zM166 500v166h-166v-166h166zM333 333v167h-167v-167h167zM499 167v166h-166v-166h166zM666 0v167h-167v-167h167zM166 167v166h-166v-166h166zM333 0v167h-167v-167h167z" />
    <glyph glyph-name="onequarter" unicode="&#xbc;" 
d="M666 0v167h-167v166h167v167h-167v166h-166v-166h-167v166h-166v-166h166v-167h-166v-166h166v-167h167v167h166v-167h167zM499 333h-166v167h166v-167zM333 167h-167v166h167v-166z" />
    <glyph glyph-name="onehalf" unicode="&#xbd;" 
d="M499 500v166h-166v-166h166zM666 333v167h-167v-167h167zM166 500v166h-166v-166h166zM333 333v167h-167v-167h167zM499 167v166h-166v-166h166zM666 0v167h-167v-167h167zM166 167v166h-166v-166h166zM333 0v167h-167v-167h167z" />
    <glyph glyph-name="threequarters" unicode="&#xbe;" 
d="M499 500v166h-166v-166h166zM666 333v167h-167v-167h167zM166 500v166h-166v-166h166zM333 333v167h-167v-167h167zM499 167v166h-166v-166h166zM666 0v167h-167v-167h167zM166 167v166h-166v-166h166zM333 0v167h-167v-167h167z" />
    <glyph glyph-name="Eth" unicode="&#xd0;" horiz-adv-x="736" 
d="M691 333q0 69 -23.5 129.5t-66.5 106t-104 71.5t-137 26h-178q-23 0 -38 -15t-15 -38v-236h-79q-19 0 -32 -13t-13 -32t13 -32.5t32 -13.5h79v-232q0 -23 15 -38.5t38 -15.5h178q76 0 137 26t104 71.5t66.5 106t23.5 129.5zM584 333q0 -50 -15.5 -93t-44.5 -74.5t-72 -49
t-98 -17.5h-118v187h90q19 0 32.5 13.5t13.5 32.5t-13.5 32t-32.5 13h-90v191h118q55 0 98 -18t72 -49.5t44.5 -74.5t15.5 -93z" />
    <glyph glyph-name="multiply" unicode="&#xd7;" horiz-adv-x="455" 
d="M400 75q0 16 -11 27l-106 106l105 105q12 12 12 28q0 17 -11.5 28.5t-28.5 11.5q-16 0 -28 -12l-105 -105l-104 105q-11 11 -28 11t-28 -11.5t-11 -28.5t11 -28l105 -104l-105 -105q-12 -12 -12 -28q0 -17 11.5 -28t28.5 -11q16 0 27 11l105 105l106 -105q12 -12 28 -12
q17 0 28 11.5t11 28.5z" />
    <glyph glyph-name="Yacute" unicode="&#xdd;" horiz-adv-x="608" 
d="M452 834q0 14 -7 22q-12 15 -30 15q-11 0 -21 -7l-122 -84q-15 -11 -15 -30q0 -11 6 -20q12 -17 31 -17q11 0 20 6l122 85q16 11 16 30zM588 626q0 23 -18 38q-14 11 -31 11q-25 0 -39 -19l-196 -268l-196 268q-14 19 -39 19q-17 0 -30 -10q-19 -14 -19 -38q0 -17 10 -30
l221 -297v-254q0 -22 15 -38t38 -16q22 0 38 16t16 38v255l221 296q9 12 9 29z" />
    <glyph glyph-name="Thorn" unicode="&#xde;" horiz-adv-x="693" 
d="M643 337q0 40 -13.5 76t-41 64t-70 44.5t-100.5 16.5h-206v83q0 23 -15 38.5t-38 15.5t-38.5 -15.5t-15.5 -38.5v-575q0 -23 15.5 -38.5t38.5 -15.5t38 15.5t15 38.5v91h206q58 0 100.5 16.5t70 44t41 63.5t13.5 76zM536 337q0 -19 -6.5 -37.5t-19.5 -32.5t-33 -23
t-46 -9h-219v204h219q26 0 46 -9t33 -23t19.5 -32.5t6.5 -37.5z" />
    <glyph glyph-name="eth" unicode="&#xf0;" horiz-adv-x="544" 
d="M494 233q0 44 -4.5 86t-16.5 83.5t-32.5 82.5t-53.5 83l31 21q9 6 11 17t-4 20t-17 11t-20 -4l-37 -25q-6 6 -14.5 14t-18 16.5t-19.5 16t-19 12.5q-13 7 -27 7q-19 0 -29 -14q-8 -11 -8 -25q0 -18 15 -31q14 -11 26 -22l24 -22l-42 -28q-9 -6 -11 -17t4 -20t17 -10.5
t20 4.5l48 32q21 -26 35.5 -55t21.5 -61q-18 17 -43.5 28.5t-64.5 11.5q-50 0 -91.5 -18t-71.5 -49t-46.5 -73t-16.5 -89t16.5 -89t46.5 -73t71.5 -49t91.5 -18q49 0 91 18t72.5 50t47.5 77.5t17 100.5zM396 216q0 -29 -8.5 -55t-25 -45.5t-41 -30.5t-55.5 -11q-32 0 -56 11
t-40 30.5t-24.5 45.5t-8.5 55t8.5 55t24.5 45.5t40 30.5t56 11q31 0 55.5 -11t41 -30.5t25 -45.5t8.5 -55z" />
    <glyph glyph-name="yacute" unicode="&#xfd;" horiz-adv-x="467" 
d="M442 398q0 14 -8 25t-21 16q-8 3 -14 3q-13 0 -24 -7t-16 -19l-122 -274l-123 274q-5 12 -16 19t-24 7q-10 0 -17 -3q-12 -5 -19.5 -16.5t-7.5 -25.5q0 -5 10.5 -31.5t27 -64t35.5 -80t36.5 -81t30.5 -67t17 -36.5q-23 -51 -61 -90t-91 -63q-12 -5 -19.5 -14.5
t-7.5 -23.5q0 -17 11.5 -29.5t28.5 -12.5q6 0 16 4q76 29 129 86t85 128l160 358q4 8 4 18zM381 616q0 14 -7 22q-12 15 -30 15q-11 0 -21 -7l-122 -84q-15 -11 -15 -30q0 -11 6 -20q12 -17 31 -17q11 0 20 6l122 85q16 11 16 30z" />
    <glyph glyph-name="thorn" unicode="&#xfe;" horiz-adv-x="603" 
d="M563 217q0 48 -17 89.5t-46.5 72.5t-70 49t-86.5 18q-48 0 -85 -23.5t-55 -53.5v258q0 20 -14.5 34t-34.5 14t-34.5 -14t-14.5 -34v-772q0 -20 14.5 -34.5t34.5 -14.5q16 0 31 12.5t15 36.5v214q19 -35 57 -58t86 -23q46 0 86.5 18t70 49t46.5 72.5t17 89.5zM466 217
q0 -29 -9.5 -55t-26.5 -45.5t-41.5 -30.5t-54.5 -11t-54 11t-41.5 30.5t-26.5 45.5t-9 55t9 55t26.5 45.5t41.5 30.5t54 11t54.5 -11t41.5 -30.5t26.5 -45.5t9.5 -55z" />
    <glyph glyph-name="apple" horiz-adv-x="876" 
d="M786 333v333h-666v-666h333v333h333z" />
  </font>
</defs>
</svg>
